<svg width="128" height="128" viewBox="0 0 128 128" fill="none" xmlns="http://www.w3.org/2000/svg">
<path fill-rule="evenodd" clip-rule="evenodd" d="M48.3163 26.9469L47 28H53.0727C53.6894 28 54.3046 28.0609 54.9093 28.1819C55.9619 28.3924 56.9705 28.7823 57.891 29.3346L58.1687 29.5012C58.7208 29.8325 59.2302 30.2302 59.6855 30.6855C60.5499 31.55 61.6038 32.2013 62.7636 32.5879L64 33L67.5 34L72 35L74 35.5L74.5 32.5L74.7176 30.7595C74.9055 29.2558 75.2189 27.7704 75.6543 26.319L75.7536 25.9881C76.2497 24.3342 76.923 22.7387 77.7615 21.2293C78.5849 19.7473 79.5629 18.3567 80.6793 17.0808L80.7637 16.9843C81.9181 15.665 83.2277 14.4542 84.6301 13.4024C85.8621 12.4784 87.1929 11.6536 88.5703 10.9649L89.5 10.5L93.1308 9.13844C93.3762 9.04642 93.6309 8.9813 93.8903 8.94424L95.995 8.64357C96.5717 8.56119 97 8.06733 97 7.48484C97 7.1744 96.8767 6.87668 96.6572 6.65717L94.1753 4.17526C93.7262 3.72619 93.2338 3.32256 92.7054 2.97028L91.8803 2.4202C90.9631 1.80875 89.9788 1.30456 88.9467 0.917515C87.3288 0.310785 85.6149 0 83.8869 0H83.3294C81.4554 0 79.5936 0.302126 77.8158 0.894749C76.6089 1.29704 75.4496 1.83021 74.3588 2.48473L73.1177 3.22941C71.7145 4.07131 70.4513 5.12707 69.3738 6.35856C68.1346 7.77469 66.6514 8.95692 64.9946 9.84904L61.7169 11.6139C61.2462 11.8674 60.8449 12.2327 60.5483 12.6775C60.1908 13.2138 60 13.8439 60 14.4885V21.9393C60 22.6185 59.7302 23.2698 59.25 23.75C58.7698 24.2302 58.1185 24.5 57.4393 24.5H54.8224C53.62 24.5 52.4301 24.7442 51.325 25.2179L50.8933 25.4029C49.9687 25.7991 49.1018 26.3185 48.3163 26.9469ZM81 19.5L81.781 18.5888C83.2534 16.8711 84.9546 15.3636 86.837 14.1087C87.9439 13.3708 89.1085 12.7234 90.3195 12.1729L91.679 11.555C93.2212 10.854 94.8388 10.3322 96.5 10L97.5976 12.9269C97.8654 13.6411 98.0752 14.3758 98.2248 15.1238C98.4078 16.039 98.5 16.9701 98.5 17.9034V19.1137C98.5 20.3631 98.2986 21.6043 97.9035 22.7895C97.6353 23.5941 97.2799 24.3669 96.8435 25.0941L96 26.5L91.5 25.5L89.3014 24.6755C88.1024 24.2259 86.9414 23.6808 85.8296 23.0455C84.6122 22.3498 83.4583 21.5486 82.3811 20.6509L81 19.5ZM80 21L79.5 22C77.8418 25.3165 76.6633 28.8519 76 32.5L77.0485 32.8932C79.0002 33.6251 81.0677 34 83.1522 34H83.646C85.5313 34 87.3994 33.6402 89.1499 32.94C90.7054 32.3179 92.1441 31.4364 93.4049 30.3332L95.5 28.5L95.1569 28.4142C91.4063 27.4766 87.8151 25.989 84.5 24L80 21ZM47.5 70L65.5883 84.2802C66.1941 84.7585 66.7435 85.3043 67.2257 85.9071C68.0668 86.9585 68.6905 88.1667 69.0604 89.4614L69.0892 89.5621C69.3617 90.5161 69.5 91.5033 69.5 92.4954V92.8627C69.5 93.9501 69.3666 95.0334 69.1029 96.0884L69 96.5L79.262 121.689C79.7491 122.884 80.4703 123.97 81.3831 124.883L81.6749 125.175C82.5463 126.046 83.6087 126.703 84.7779 127.093C85.5873 127.362 86.435 127.5 87.2882 127.5H88.6966C89.5576 127.5 90.4107 127.336 91.2102 127.016C92.0612 126.676 92.8342 126.166 93.4823 125.518L93.8657 125.134C94.287 124.713 94.655 124.242 94.9615 123.731C95.6411 122.598 96 121.302 96 119.982V119.067C96 117.702 95.7361 116.35 95.2228 115.085L82 82.5L81.3149 81.3011C80.454 79.7945 79.2055 78.546 77.6989 77.6851C76.9036 77.2306 76.0481 76.8909 75.1577 76.676L47.5 70ZM12 79.1722V78.4493C12 77.8191 12.0819 77.1916 12.2437 76.5825L20.3651 46.0077C20.4548 45.6701 20.5787 45.3426 20.7349 45.0301C21.2316 44.0369 22.0369 43.2315 23.0301 42.7349L23.0687 42.7157C23.3556 42.5722 23.6551 42.4553 23.9634 42.3663L48.5261 35.2809C49.1721 35.0946 49.8412 35 50.5137 35H50.9676C51.9703 35 52.9542 35.2725 53.814 35.7884C54.5927 36.2556 55.2444 36.9073 55.7116 37.686C56.2275 38.5458 56.5 39.5297 56.5 40.5324V40.9491C56.5 41.315 56.4551 41.6795 56.3664 42.0345C56.1287 42.9851 55.5856 43.8315 54.8204 44.4437L54.4454 44.7437C53.8216 45.2427 53.103 45.6098 52.3332 45.8227L30 52L22.5 79.5L21.9628 81.1117C21.6607 82.0179 21.1032 82.8175 20.3573 83.4142L20.2603 83.4918C19.4445 84.1444 18.4308 84.5 17.3861 84.5C16.8007 84.5 16.2208 84.3883 15.6773 84.1709L15.2755 84.0102C14.4394 83.6758 13.7043 83.1304 13.1418 82.4273C12.4027 81.5034 12 80.3554 12 79.1722ZM38.5 36.5L44.7006 31.9311C46.8438 30.3519 49.4361 29.5 52.0983 29.5H53.1966C54.0576 29.5 54.9107 29.6643 55.7102 29.9841C56.5612 30.3245 57.3342 30.8342 57.9823 31.4823L58.2502 31.7502C58.7482 32.2482 59.3054 32.6832 59.9093 33.0456L60.1319 33.1791C61.039 33.7234 62.0216 34.1304 63.0479 34.387L65.5 35L67.3715 35.4159C69.121 35.8047 70.8361 36.3344 72.5 37L84.5 56L112.461 61.8864C112.82 61.962 113.171 62.0685 113.512 62.2047L114.014 62.4058C114.978 62.7913 115.789 63.4819 116.323 64.372C116.766 65.1101 117 65.9547 117 66.8155V67.882C117 68.6172 116.829 69.3424 116.5 70L116.464 70.073C116.159 70.6826 115.716 71.2129 115.171 71.6219C114.411 72.1919 113.486 72.5 112.536 72.5H110.557C109.854 72.5 109.153 72.4282 108.465 72.2858L80.5 66.5L78.5 66L66 47L53 58.5L47.8273 63.2416C47.2767 63.7463 46.7695 64.2963 46.311 64.8859L43.6273 68.3363C43.5448 68.4424 43.5 68.573 43.5 68.7074C43.5 68.8922 43.5846 69.0669 43.7295 69.1815L65 86L65.6749 86.6749C66.5463 87.5463 67.2029 88.6087 67.5926 89.7779C67.8624 90.5873 68 91.435 68 92.2882V92.7248C68 93.8922 67.7282 95.0436 67.2061 96.0878C66.7404 97.0191 66.0864 97.8436 65.2855 98.509L34 124.5L31 126.5L29.5652 127.217C28.5359 127.732 27.4009 128 26.25 128C25.0991 128 23.9641 127.732 22.9348 127.217L22.7221 127.111C21.9127 126.706 21.1738 126.174 20.5338 125.534L20.3251 125.325C19.4537 124.454 18.7971 123.391 18.4074 122.222C18.1376 121.413 18 120.565 18 119.712V118.338C18 117.135 18.3269 115.955 18.9459 114.924C19.3129 114.312 19.7761 113.763 20.3178 113.299L23 111L45.5 92.5L25 77L31.5 53.5L52.3377 47.817C53.1089 47.6067 53.8476 47.2914 54.5331 46.8802C55.5018 46.2989 56.3486 45.5352 57.0264 44.6314L57.5 44C58.1521 43.0219 58.5 41.8727 58.5 40.6972V40.5C58.5 39.1959 58.114 37.921 57.3906 36.8359L57.3523 36.7785C56.7911 35.9367 56.05 35.23 55.1824 34.7094L54.5471 34.3282C54.1834 34.1101 53.797 33.9323 53.3947 33.7982C52.8021 33.6007 52.1815 33.5 51.5569 33.5H50.3996C49.14 33.5 47.887 33.6839 46.6805 34.0459L38.5 36.5ZM89 18.4635V18.726C89 19.5417 89.324 20.324 89.9008 20.9008L90 21C90.6403 21.6403 91.5087 22 92.4142 22H92.8486C93.2733 22 93.6886 21.8743 94.042 21.6387L94.3637 21.4242C94.7612 21.1592 95 20.713 95 20.2353C95 19.7739 94.7772 19.3408 94.4017 19.0726L91.6234 17.0881C91.5413 17.0295 91.4547 16.9773 91.3644 16.9322L91.1 16.8C90.7223 16.6111 90.2777 16.6111 89.9 16.8C89.6404 16.9298 89.4298 17.1404 89.3 17.4L89.2073 17.5854C89.071 17.8581 89 18.1587 89 18.4635Z" fill="#FBA834"/>
</svg>
