<svg width="128" height="128" viewBox="0 0 128 128" fill="none" xmlns="http://www.w3.org/2000/svg">
<path fill-rule="evenodd" clip-rule="evenodd" d="M48.5 2L48.6233 1.75344C48.8701 1.2597 49.2416 0.838939 49.7009 0.532737C50.222 0.185365 50.8342 0 51.4604 0H96.5396C97.1658 0 97.778 0.185365 98.2991 0.532737C98.7584 0.838939 99.1299 1.2597 99.3767 1.75344L99.5697 2.13932C99.8527 2.70533 100 3.32945 100 3.96227C100 4.64323 99.8294 5.31334 99.5038 5.9114L75.5 50H106.149C107.024 50 107.872 50.2976 108.555 50.8438L108.589 50.8715C109.481 51.5848 110 52.6647 110 53.8065C110 54.5831 109.759 55.3406 109.311 55.9749L60.0934 125.66C59.7021 126.214 59.1996 126.68 58.618 127.029L58.1256 127.325C57.4013 127.759 56.5411 127.908 55.7128 127.743C54.9294 127.586 54.2264 127.158 53.7274 126.534L53.6225 126.403C52.9109 125.514 52.629 124.355 52.8524 123.238L62 77.5H27.2483C26.4315 77.5 25.63 77.278 24.9296 76.8577L24.4424 76.5654C23.8343 76.2006 23.3767 75.6302 23.1525 74.9574C23.0515 74.6544 23 74.3372 23 74.0179V73.5386C23 72.8514 23.1195 72.1695 23.3533 71.5234L48.5 2ZM8 70.8393V71.073C8 71.6826 8.14194 72.2839 8.41459 72.8292L8.5541 73.1082C8.84354 73.6871 9.31292 74.1565 9.89181 74.4459C10.6014 74.8007 11.4228 74.8591 12.1754 74.6082L12.5 74.5C13.4604 74.1799 14.2544 73.4913 14.7071 72.5858L15.5 71L30.7209 27.7924C30.9056 27.2679 31 26.7159 31 26.1599V25.7584C31 25.2597 30.8839 24.7678 30.6608 24.3216C30.2414 23.4828 29.4763 22.8691 28.5665 22.6416L28.4223 22.6056C28.1418 22.5355 27.8538 22.5 27.5647 22.5H27.5418C26.5546 22.5 25.6078 22.8922 24.9098 23.5902L24.7089 23.7911C24.2423 24.2577 23.8863 24.8232 23.6674 25.4458L8.27843 69.2082C8.09414 69.7323 8 70.2838 8 70.8393ZM45.6717 85.9925L45.4248 86.3628C45.1443 86.7836 44.9482 87.2549 44.8474 87.7505L39.2632 115.206C39.0915 116.05 39.1705 116.926 39.4905 117.726L39.661 118.152C39.8818 118.704 40.2648 119.177 40.7596 119.506C41.2424 119.828 41.8096 120 42.3899 120H42.5C43.1521 120 43.7895 119.807 44.3321 119.445L44.4033 119.398C44.7972 119.135 45.1352 118.797 45.3978 118.403L45.5027 118.246C45.8311 117.753 46.0597 117.201 46.1758 116.621L51.5 90L51.6843 89.2628C51.888 88.4479 51.7935 87.5871 51.4179 86.8358L51.3767 86.7534C51.1299 86.2597 50.7584 85.8389 50.2991 85.5327C49.778 85.1854 49.1658 85 48.5396 85H47.5261C47.1801 85 46.8389 85.0806 46.5294 85.2353C46.1825 85.4088 45.8868 85.6698 45.6717 85.9925ZM72.1565 121.778L89.7905 96.7967C89.9299 96.5993 90.0859 96.4141 90.2568 96.2432L90.4787 96.0213C91.1326 95.3674 92.0195 95 92.9443 95H93.0396C93.6658 95 94.278 95.1854 94.7991 95.5327C95.2584 95.8389 95.6299 96.2597 95.8767 96.7534L96.1082 97.2163C96.3658 97.7317 96.5 98.3 96.5 98.8762C96.5 99.609 96.2831 100.325 95.8766 100.935L95.5 101.5L78.3963 125.934C78.1344 126.308 77.805 126.63 77.425 126.883C76.8219 127.285 76.1132 127.5 75.3883 127.5H74.8117C74.2779 127.5 73.7514 127.376 73.2739 127.137L73.0161 127.008C72.3655 126.683 71.8708 126.112 71.6407 125.422C71.5475 125.143 71.5 124.85 71.5 124.555V123.847C71.5 123.29 71.6296 122.741 71.8787 122.243C71.9594 122.081 72.0523 121.926 72.1565 121.778ZM113.387 63.3583L104.747 75.454C104.261 76.1343 104 76.9494 104 77.7855V77.9144C104 78.6223 104.21 79.3143 104.602 79.9033C104.865 80.2972 105.203 80.6352 105.597 80.8978C106.186 81.2905 106.878 81.5 107.586 81.5H107.624C108.2 81.5 108.768 81.3658 109.284 81.1082L109.467 81.0164C110.145 80.6775 110.728 80.1755 111.165 79.5556L119.239 68.0813C119.734 67.3777 120 66.5382 120 65.6778V65.6441C120 65.2175 119.931 64.7937 119.796 64.3889L119.744 64.2306C119.583 63.7501 119.314 63.3136 118.955 62.9555C118.344 62.3437 117.514 62 116.649 62H116.026C115.678 62 115.331 62.0562 115.001 62.1665C114.35 62.3832 113.785 62.8005 113.387 63.3583ZM96.3664 27.3303L110.027 2.36383C110.339 1.79454 110.769 1.29855 111.288 0.909186L111.5 0.75C112.149 0.263167 112.939 0 113.75 0H113.789C114.575 0 115.34 0.254868 115.968 0.726349L116.032 0.774163C116.658 1.2437 117.104 1.91442 117.293 2.67361C117.429 3.21619 117.429 3.78381 117.293 4.32639L117.167 4.83073C117.056 5.27516 116.89 5.70393 116.672 6.10702L103.972 29.6266C103.661 30.202 103.229 30.7032 102.706 31.0956C101.923 31.6826 100.971 32 99.9926 32H99.8585C98.9727 32 98.1067 31.7378 97.3697 31.2464L97.227 31.1513C97.076 31.0507 96.9354 30.9354 96.8071 30.8071C96.2903 30.2903 96 29.5894 96 28.8586V28.7634C96 28.2625 96.126 27.7697 96.3664 27.3303ZM54 7.5L32 70H65.4695C66.1502 70 66.8248 70.1299 67.4568 70.3827L68.1524 70.661C68.7045 70.8818 69.1766 71.2648 69.5064 71.7596C69.8282 72.2424 70 72.8096 70 73.3899V74.7522C70 75.2495 69.9501 75.7455 69.8511 76.2329L63.5 107.5L99 57.5H69.5523C68.8603 57.5 68.1778 57.3389 67.5588 57.0294L67.2534 56.8767C66.7597 56.6299 66.3389 56.2584 66.0327 55.7991C65.6854 55.278 65.5 54.6658 65.5 54.0396V53.6419C65.5 52.8926 65.6877 52.1552 66.046 51.4971L90 7.5H54Z" fill="#FBA834"/>
</svg>
