<svg width="36" height="36" viewBox="0 0 36 36" fill="none" xmlns="http://www.w3.org/2000/svg">
<path d="M0.465185 14.4122L0.429005 14.4725C0.148286 14.9404 0 15.4757 0 16.0213V20.3169C0 20.8234 0.149948 21.3187 0.430946 21.7402C0.700593 22.1446 1.07959 22.4642 1.5238 22.6616L1.57461 22.6842C1.92719 22.8409 2.30874 22.9219 2.69458 22.9219H13.0781V33.2454C13.0781 33.5792 13.1365 33.9105 13.2506 34.2242L13.3032 34.369C13.5199 34.9648 13.9567 35.4549 14.5237 35.7384C14.8678 35.9104 15.2471 36 15.6318 36H20.3682C20.7529 36 21.1322 35.9104 21.4763 35.7384C22.0433 35.4549 22.4801 34.9648 22.6968 34.369L22.7494 34.2242C22.8635 33.9105 22.9219 33.5792 22.9219 33.2454V22.9219H32.9485C33.2934 22.9219 33.6364 22.8703 33.966 22.7689L34.4551 22.6184C34.9952 22.4522 35.4501 22.0835 35.7246 21.5895C35.9052 21.2644 36 20.8986 36 20.5266V15.7824C36 15.3912 35.9089 15.0053 35.734 14.6554C35.4528 14.0931 34.9715 13.6561 34.3847 13.4304L34.0606 13.3058C33.6694 13.1553 33.2538 13.0781 32.8346 13.0781H22.9219V2.75462C22.9219 2.42078 22.8635 2.0895 22.7494 1.77576L22.6968 1.631C22.4801 1.0352 22.0433 0.545105 21.4763 0.261583C21.1322 0.0895587 20.7529 0 20.3682 0H15.6318C15.2471 0 14.8678 0.0895587 14.5237 0.261583C13.9567 0.545105 13.5199 1.0352 13.3032 1.631L13.2506 1.77576C13.1365 2.0895 13.0781 2.42078 13.0781 2.75462V13.0781H2.8214C2.35443 13.0781 1.89516 13.1971 1.48695 13.4239C1.06557 13.658 0.713193 13.9988 0.465185 14.4122Z" fill="#FED397"/>
</svg>
