<svg width="36" height="36" viewBox="0 0 36 36" fill="none" xmlns="http://www.w3.org/2000/svg">
<g clip-path="url(#clip0_193_18)">
<rect x="0.5" y="0.5" width="35" height="35" rx="7.5" stroke="#FBA834"/>
<path d="M31 8.66667C31 8.66667 29.7255 8.66667 29.4377 8.66667C25.1689 8.66667 21.4486 7.00977 18.4998 4C15.5512 7.00966 11.8312 8.66667 7.56264 8.66667C7.27483 8.66667 6.00014 8.66667 6.00014 8.66667C6.00014 8.66667 6 11.7778 6 13.5917C6 22.4483 11.3116 29.89 18.5 32C25.6884 29.89 31 22.4483 31 13.5917C31 11.7778 31 8.66667 31 8.66667Z" stroke="#FBA834" stroke-width="2" stroke-linecap="round" stroke-linejoin="round"/>
<path d="M26 12.8333C26 12.8333 25.2353 12.8333 25.0626 12.8333C22.5013 12.8333 20.2692 11.8274 18.4999 10C16.7307 11.8273 14.4987 12.8333 11.9376 12.8333C11.7649 12.8333 11.0001 12.8333 11.0001 12.8333C11.0001 12.8333 11 14.7222 11 15.8235C11 21.2007 14.1869 25.719 18.5 27C22.8131 25.719 26 21.2007 26 15.8235C26 14.7222 26 12.8333 26 12.8333Z" stroke="#FED397" stroke-linecap="round" stroke-linejoin="round"/>
</g>
<defs>
<clipPath id="clip0_193_18">
<rect width="36" height="36" fill="white"/>
</clipPath>
</defs>
</svg>
