<svg width="36" height="36" viewBox="0 0 36 36" fill="none" xmlns="http://www.w3.org/2000/svg">
<g clip-path="url(#clip0_196_23)">
<rect x="0.5" y="0.5" width="35" height="35" rx="7.5" stroke="#FBA834"/>
<path fill-rule="evenodd" clip-rule="evenodd" d="M28.5005 21.0023C28.5005 18.6915 26.7219 15.2846 23.6976 11.3069C21.8099 8.82402 19.6784 6.42628 17.9872 4.69764C16.3088 6.41588 14.1736 8.82357 12.291 11.3061C9.27462 15.2836 7.5005 18.6909 7.5005 21.0023C7.5005 23.6154 8.45652 26.0769 10.1586 27.9851C10.4344 28.2942 10.4073 28.7682 10.0983 29.044C9.7892 29.3197 9.31505 29.2927 9.03935 28.9836C7.09416 26.8031 6.00049 23.987 6.00049 21.0023C6.00049 18.2549 7.88832 14.6292 11.0958 10.3998C13.1484 7.69317 15.4845 5.08449 17.2512 3.3075C17.661 2.89761 18.3129 2.89761 18.7241 3.3088C20.5058 5.0992 22.8352 7.69422 24.8917 10.399C28.1078 14.629 30.0005 18.2545 30.0005 21.0023C30.0005 27.6295 24.6277 33.0024 18.0005 33.0024C15.7227 33.0024 13.5369 32.3666 11.6505 31.1855C11.2994 30.9657 11.193 30.5029 11.4128 30.1518C11.6326 29.8008 12.0954 29.6943 12.4465 29.9142C14.0957 30.9467 16.006 31.5024 18.0005 31.5024C23.7993 31.5024 28.5005 26.8011 28.5005 21.0023ZM10.4999 21.2832C10.4999 25.4244 13.8586 28.7831 17.9999 28.7831C18.4141 28.7831 18.7499 29.1189 18.7499 29.5331C18.7499 29.9473 18.4141 30.2831 17.9999 30.2831C13.0302 30.2831 8.9999 26.2528 8.9999 21.2832C8.9999 20.8689 9.33567 20.5332 9.7499 20.5332C10.1641 20.5332 10.4999 20.8689 10.4999 21.2832Z" fill="#FBA834"/>
</g>
<defs>
<clipPath id="clip0_196_23">
<rect width="36" height="36" fill="white"/>
</clipPath>
</defs>
</svg>
