<svg width="36" height="36" viewBox="0 0 36 36" fill="none" xmlns="http://www.w3.org/2000/svg">
<g clip-path="url(#clip0_84_147)">
<path d="M4.17046 33.3067C3.37809 33.3067 2.63556 32.8145 2.35403 32.0254C1.99626 31.0224 2.51956 29.9191 3.52256 29.5617C6.13226 28.6287 8.87189 27.1647 9.32993 26.4634C9.98822 24.32 12.1506 19.3643 12.2431 19.1522C12.6694 18.1762 13.8065 17.7307 14.7822 18.1572C15.7582 18.5838 16.2035 19.7203 15.7772 20.6963C15.1655 22.0963 13.4751 26.0721 13.0034 27.6384C12.2295 30.2087 7.54287 32.2224 4.81807 33.1939C4.60418 33.2705 4.38554 33.3067 4.17046 33.3067Z" fill="#1F2544"/>
<path d="M19.5408 36.0001C19.3144 36.0001 19.0845 35.9598 18.8602 35.8752C17.8641 35.499 17.3609 34.3866 17.7368 33.3904C18.5689 31.185 19.4654 28.4721 19.7125 27.2908C18.8828 26.4987 16.8836 24.8458 15.1743 23.5111C14.3347 22.8555 14.1858 21.6439 14.8411 20.8044C15.4967 19.9655 16.7086 19.8165 17.5478 20.4716C22.7717 24.5509 23.1923 25.3575 23.3721 25.7016C23.7311 26.3899 24.1778 27.2466 21.3451 34.7521C21.0534 35.524 20.3201 36.0001 19.5408 36.0001Z" fill="#1F2544"/>
<path d="M22.7576 8.4049C25.0786 8.4049 26.9601 6.5234 26.9601 4.20245C26.9601 1.8815 25.0786 0 22.7576 0C20.4367 0 18.5552 1.8815 18.5552 4.20245C18.5552 6.5234 20.4367 8.4049 22.7576 8.4049Z" fill="#1F2544"/>
<path d="M20.2086 7.96558C20.2086 7.96558 20.6672 8.02194 21.0944 8.22041C21.5023 8.41027 21.92 8.70722 21.92 8.70722L21.9307 8.71434C23.0865 9.59809 24.0034 11.2579 23.3098 12.8409L19.5892 21.3386C18.7802 23.1847 16.4464 23.5247 14.7477 22.7804C14.4585 22.6537 14.182 22.4962 13.9251 22.3108C12.7206 21.4442 11.8209 19.8506 12.5243 18.2442L16.2458 9.74642C16.9362 8.16938 18.7843 7.71757 20.2086 7.96558Z" fill="#1F2544"/>
<path d="M8.49907 14.9937C8.16681 14.9937 7.83159 14.8929 7.54235 14.6828C6.81316 14.1539 6.6506 13.1343 7.17924 12.4048C7.98022 11.3001 10.026 8.66752 11.7202 8.08696C13.2987 7.54586 17.9776 7.81967 19.3739 7.91638C20.2728 7.97868 20.951 8.7577 20.8887 9.65687C20.8267 10.5554 20.0566 11.233 19.1485 11.1719C16.6162 10.9972 13.4515 10.9559 12.7766 11.1746C12.285 11.3713 10.8729 12.872 9.82098 14.3206C9.50177 14.7603 9.00398 14.9937 8.49907 14.9937Z" fill="#1F2544"/>
<path d="M25.3785 13.29C23.8171 13.29 22.1882 13.196 21.2528 13.131C20.354 13.0687 19.6758 12.2897 19.7381 11.3905C19.8001 10.4919 20.5687 9.81258 21.4783 9.87548C24.0106 10.0508 27.1753 10.0914 27.8499 9.87281C28.3441 9.67523 29.7562 8.17444 30.8058 6.72705C31.335 5.99786 32.355 5.835 33.0847 6.36394C33.8142 6.89288 33.9768 7.91308 33.4481 8.64257C32.6472 9.74732 30.6011 12.3796 28.9069 12.9601C28.1739 13.2117 26.8045 13.29 25.3785 13.29Z" fill="#1F2544"/>
</g>
<defs>
<clipPath id="clip0_84_147">
<rect width="36" height="36" fill="white"/>
</clipPath>
</defs>
</svg>
