<svg width="93" height="111" viewBox="0 0 93 111" fill="none" xmlns="http://www.w3.org/2000/svg">
<path d="M20.7194 80.9737C20.2053 81.0615 19.6955 81.1494 19.1819 81.2368C17.9614 81.4404 16.7061 81.6631 15.6539 82.3085C15.0837 82.6604 14.597 83.1189 14.1711 83.6317C14.142 83.6217 14.1085 83.6156 14.0789 83.6056C13.1833 83.3594 12.2499 83.1106 11.3352 83.1519C11.6423 82.8796 11.9498 82.6026 12.2569 82.3303C12.7597 81.8853 13.2673 81.4369 13.8762 81.1546C14.2155 80.9984 14.5774 80.8984 14.9423 80.8197C16.8405 80.3969 18.8452 80.4508 20.7194 80.9737Z" fill="#FBA834"/>
<path d="M38.9735 110.469C38.7725 110.497 38.5724 110.512 38.3697 110.493C37.9852 110.456 37.5951 110.295 37.3698 109.978C37.2554 109.814 37.1849 109.616 37.0483 109.473C36.9392 109.365 36.7943 109.294 36.6486 109.239C35.73 108.873 34.6404 108.85 33.8979 108.196C33.0619 107.46 32.9836 106.204 32.9658 105.086C32.9462 103.757 32.9227 102.427 32.9032 101.097C32.9014 100.966 32.8962 100.821 32.817 100.715C32.7261 100.587 32.5543 100.544 32.3995 100.506C30.5883 100.076 28.8128 99.1341 27.8076 97.5747C28.4039 97.4529 28.9855 97.2885 29.5535 97.0637C29.815 97.5017 30.2377 97.8553 30.7062 98.0749C31.406 98.4046 32.1911 98.4881 32.9658 98.5286C33.74 98.5734 34.6156 98.6321 35.1062 99.235C35.4172 99.6208 35.4873 100.142 35.5464 100.633C35.7739 102.615 35.9496 104.602 36.0788 106.591C36.094 106.867 36.1132 107.149 36.2054 107.412C36.4089 107.983 36.9278 108.367 37.3867 108.764C37.9796 109.267 38.5141 109.842 38.9735 110.469Z" fill="#FBA834"/>
<path d="M70.4408 94.523C70.4239 94.607 70.373 94.6805 70.323 94.7501C70.0315 95.1254 69.6344 95.4143 69.1886 95.5778C69.2321 95.8814 69.1947 96.1937 69.0368 96.4529C68.8598 96.7535 68.4966 96.9597 68.1556 96.9118C67.9459 97.4273 67.6349 97.937 67.1077 98.0327C66.6149 98.1214 66.1474 97.8083 65.7876 97.4629C64.9956 96.7039 64.3945 95.7009 63.4049 95.2246C62.6385 94.8619 61.7386 94.8697 60.9166 95.0859C60.7099 95.1385 60.5112 95.2046 60.3124 95.279C59.7148 95.5021 59.1476 95.8035 58.5886 96.1011C57.7679 96.5334 56.9515 96.9705 56.1307 97.4068C55.0128 98.0018 53.7884 98.6125 52.5432 98.3989C51.5001 98.2167 50.6506 97.4934 49.8555 96.794C48.9917 96.0271 48.1231 95.2642 47.2593 94.5017C48.4532 93.4226 49.4667 92.1429 50.3401 90.7837C50.9964 89.7611 51.6054 88.6685 52.3679 87.7277C53.1691 88.2366 53.858 88.9347 54.4913 89.6471C54.8319 90.0299 55.1681 90.4253 55.5131 90.8085C56.0141 91.3696 56.5422 91.9063 57.1468 92.3582C57.9188 92.9337 58.8562 93.3517 59.8044 93.4017C60.1049 93.4174 60.4072 93.3952 60.7034 93.3299C61.2958 93.1999 61.8378 92.9054 62.3706 92.6153C63.1744 92.1777 63.9743 91.7402 64.7738 91.3065C66.0047 91.9568 67.2687 92.5409 68.5614 93.0585C68.6601 92.393 68.4805 91.6875 68.0668 91.1521C68.5488 91.186 68.9872 91.4892 69.2856 91.8737C69.5883 92.2547 69.7719 92.714 69.9563 93.1651C70.095 93.5117 70.2338 93.8632 70.3769 94.2099C70.4182 94.3095 70.4591 94.4178 70.4408 94.523Z" fill="#FBA834"/>
<path d="M90.6434 55.1848C90.5416 53.6429 90.2297 52.0605 89.3459 50.7874C88.3951 49.4134 86.8914 48.5452 85.4404 47.7179C87.021 49.4647 88.499 51.4772 88.7796 53.8182C88.8927 54.7368 88.8066 55.6533 88.5691 56.5362C88.1354 58.1686 87.1772 59.6893 85.9602 60.8819C84.0894 62.7279 81.668 63.8997 79.2235 64.8627C76.7969 65.8135 74.2942 66.5907 71.7218 67.0035C68.4261 67.5311 65.0517 67.452 61.7604 67.9674C61.3968 68.0205 61.0327 68.0861 60.6726 68.1566C54.5209 69.3962 48.9713 73.3287 45.6987 78.6796C46.4294 75.5091 47.726 72.4701 49.8934 70.0709C52.7728 66.8813 57.4352 65.0627 61.5155 66.4055C60.3959 65.2519 60.5464 63.269 61.4646 61.9463C62.3828 60.6235 63.8843 59.8319 65.3723 59.2182C70.9602 56.9051 77.2849 56.4084 83.166 57.8246C81.3953 55.8177 78.8838 54.6546 76.6938 53.1179C74.5034 51.5812 72.4704 49.3185 72.5256 46.6431C72.58 43.9042 74.7787 41.7189 76.9974 40.1118C79.3532 38.4059 81.9155 36.9783 84.6092 35.8713C87.2986 34.7644 90.1201 33.9741 93 33.5308C87.5848 32.6274 82.0899 31.7031 77.1188 29.3713C74.5008 28.1434 71.7971 26.113 71.6131 23.2297C71.4556 20.8066 73.1589 18.6718 74.9753 17.0563C77.1479 15.1242 79.625 13.531 82.2843 12.3544C76.1371 14.0782 70.0785 16.1377 64.1518 18.5182C56.4996 21.5895 49.0652 25.1983 41.9189 29.3056C37.1926 32.0207 32.5194 35.0227 28.9749 39.1622C27.8762 40.4458 26.898 41.859 26.0899 43.3574C24.6936 45.9454 23.8102 48.7896 23.7141 51.6795C23.6967 52.2515 22.936 52.4324 22.6702 51.9218L21.4641 49.5834C20.9469 51.2754 20.4871 53.9722 21.6615 55.294C22.8403 56.6163 24.3783 57.5584 25.7545 58.6706C32.2941 63.9579 34.7234 73.6567 31.7669 81.4724C31.7643 81.5233 31.7574 81.5738 31.7504 81.6247C31.6886 81.7486 31.6269 81.873 31.5612 81.9926V81.997C31.0671 82.9178 30.4955 83.7873 29.8418 84.5937C28.757 85.9334 27.4304 87.1199 25.8228 87.7406C24.2852 88.3309 22.5815 88.3644 20.9573 88.0886C19.9517 87.9172 18.9322 87.6132 18.1053 87.0351C17.8143 86.5915 17.5238 86.143 17.2328 85.6989C17.221 85.6815 17.2132 85.6685 17.2015 85.6507C17.6799 85.0221 18.2271 84.461 18.9026 84.0461C19.9591 83.401 21.2105 83.1779 22.4305 82.9743C22.9447 82.8865 23.4583 82.7991 23.9681 82.7112C22.0939 82.1888 20.0935 82.1344 18.1953 82.5572C17.8261 82.6355 17.4646 82.7355 17.1253 82.8917C16.5164 83.174 16.0088 83.6229 15.5104 84.0678C15.4882 84.0878 15.466 84.1078 15.4434 84.1279C15.0528 83.8869 14.6095 83.7573 14.1707 83.6324C14.1415 83.6224 14.108 83.6163 14.0785 83.6063C13.1829 83.3601 12.2495 83.1114 11.3347 83.1527C11.0329 83.1666 10.7332 83.2101 10.4357 83.2966C9.97027 83.4337 9.54141 83.6742 9.09427 83.863C7.79592 84.4188 6.33141 84.5885 4.93998 84.3332C4.11182 84.1835 3.278 83.8895 2.45114 84.0374C1.4403 84.2135 0.650845 85.0213 0.116715 85.8973C0.0749592 85.9673 0.0332085 86.033 0.0162451 86.1126C-0.0255109 86.2631 0.0214613 86.4227 0.0645223 86.5736C0.278087 87.2765 0.487307 87.9794 0.696957 88.6823C0.994903 88.668 1.2872 88.5945 1.56122 88.4731C1.86526 89.2317 2.03923 90.0389 2.07751 90.8514C3.82822 90.8158 5.4032 91.8575 6.78159 92.9358C8.16389 94.014 9.5575 95.2076 11.2704 95.5647C12.4252 95.8035 13.6535 95.6086 14.6965 95.0649C15.7074 95.7039 16.8383 96.1493 17.9983 96.452C19.4806 96.8352 21.013 96.9961 22.5393 97.1101C24.4457 97.2567 26.42 97.3262 28.2816 96.9526C28.8779 96.8308 29.4595 96.6664 30.0275 96.4415C30.2889 96.8795 30.7117 97.2327 31.1797 97.4528C31.8796 97.7825 32.6651 97.866 33.4393 97.9065C34.2136 97.9513 35.0891 98.01 35.5798 98.6129C35.8908 98.9987 35.9608 99.5197 36.02 100.011C36.247 101.992 36.4232 103.98 36.5523 105.968C36.5676 106.245 36.5867 106.526 36.6789 106.79C36.8825 107.361 37.4014 107.745 37.8603 108.142C38.4535 108.645 38.9881 109.22 39.4474 109.847L39.5188 109.94C39.7006 110.196 39.8859 110.469 40.1721 110.598C40.3587 110.684 40.5701 110.699 40.7732 110.706C41.5913 110.728 42.4256 110.597 43.1424 110.202C44.1959 109.62 44.8975 108.456 44.9227 107.252C44.9475 106.048 44.2929 104.855 43.2685 104.228C43.5717 104.838 43.7405 105.513 43.7513 106.193C43.7535 106.316 43.7466 106.448 43.6731 106.55C43.5173 106.767 43.1528 106.68 42.9854 106.472C42.8179 106.263 42.7775 105.985 42.6761 105.734C42.4665 105.201 41.9702 104.789 41.4026 104.683C40.8393 104.577 40.226 104.778 39.835 105.199C40.5718 102.716 40.8728 100.13 41.1733 97.5568C41.2116 97.2275 41.2503 96.8987 41.2764 96.5646C43.0171 96.3163 44.6782 95.5586 46.0953 94.5125C46.4664 94.2389 46.8165 93.9518 47.1553 93.6426C48.3493 92.5634 49.3627 91.2838 50.2361 89.9245C50.8925 88.902 51.5014 87.8093 52.2639 86.8685C53.0651 87.3774 53.7541 88.0755 54.3874 88.788C54.728 89.1708 55.0638 89.5661 55.4091 89.9493C55.9102 90.5104 56.4382 91.0476 57.0428 91.4991C57.8149 92.0746 58.7522 92.4925 59.7004 92.5426C60.001 92.5582 60.3033 92.536 60.5999 92.4708C61.1923 92.3407 61.7343 92.0463 62.2671 91.7562C63.0709 91.3186 63.8708 90.881 64.6702 90.4474C64.9238 90.3078 65.177 90.1725 65.4306 90.0333C66.2609 89.5801 67.1043 89.119 68.0238 88.8998C68.9476 88.681 69.9685 88.7258 70.7697 89.2304C71.4682 89.6701 71.9223 90.4026 72.4939 90.9972C73.061 91.5957 73.8923 92.0976 74.6817 91.8545C75.2641 91.677 75.6477 91.1581 75.9683 90.6274C76.3045 90.5305 76.6047 90.3086 76.7943 90.0128C76.9518 89.758 77.0314 89.4565 77.0174 89.1586C77.4746 88.9407 77.8143 88.4535 77.8839 87.9351C77.98 87.2356 77.6559 86.5353 77.1866 86.0099C76.7134 85.4845 76.1049 85.1087 75.5047 84.7377C75.9418 85.3845 76.0805 86.2239 75.8796 86.9773C74.2041 86.6306 72.7875 85.5632 71.3782 84.5937C69.9646 83.6281 68.3952 82.7099 66.6833 82.739C67.1939 83.2836 67.4105 84.0887 67.2409 84.8142C65.9482 84.4536 64.5567 84.4445 63.2606 84.7925C63.0279 84.8568 62.7904 84.9334 62.6081 85.0895C62.2971 85.3575 62.1879 85.8146 61.8452 86.0386C62.3254 84.4893 62.3458 82.8008 61.9013 81.241C61.8113 80.9309 61.7086 80.6238 61.5403 80.352C61.1345 79.673 60.4181 79.2489 59.7209 78.8688C60.8718 77.155 62.632 75.8845 64.4771 74.9285C68.8011 72.6806 73.7148 71.8981 78.3327 70.3531C82.9551 68.8082 87.6139 66.1662 89.5999 61.7157C90.3789 59.9737 90.6917 58.0551 90.6773 56.14C90.6743 55.8186 90.6651 55.4997 90.6434 55.1848ZM78.2614 56.2635C63.2867 49.5451 47.0409 46.0202 30.6421 45.908C47.0314 44.8228 63.8095 48.4773 78.2614 56.2635ZM41.6257 38.3128C50.5759 35.3437 59.944 33.5426 69.3635 33.0428C74.0462 32.7744 78.8852 32.7736 83.4087 34.1689C78.8082 33.1085 74.0776 33.3107 69.4096 33.6987C57.714 34.6352 46.1715 37.1754 35.1435 41.1648C32.9217 41.9268 30.7522 42.832 28.5635 43.7019C32.7817 41.6102 37.1421 39.7929 41.6257 38.3128ZM27.9232 48.55C33.8147 49.7583 39.2143 52.5838 44.5125 55.3144C49.7947 58.1082 54.9872 61.2451 59.3872 65.3211C54.5775 61.7714 49.4049 58.8307 44.1211 56.0665C38.8363 53.3149 33.6155 50.4016 27.9232 48.55Z" fill="#FBA834"/>
<path d="M20.702 49.1434C19.091 55.1837 21.0509 55.7704 25.4196 59.0678C30.2189 62.8972 32.7817 69.0758 32.76 75.157C32.7278 77.2309 32.4042 79.2765 31.7778 81.2681C32.5316 72.7977 27.3434 63.9946 19.4128 60.7903C17.7669 60.127 16.0249 59.6746 14.5113 58.7507C12.9976 57.8308 12.6514 55.1175 12.6553 53.3481L14.4921 55.2311C14.8949 55.6425 15.5695 55.2493 15.4204 54.6939C14.2333 50.2895 14.9602 45.4127 16.8026 41.1884C18.9831 36.1925 22.5789 31.9621 26.3056 27.9852C36.3132 17.3083 47.6512 7.88537 59.9745 0C57.7697 1.90077 55.8654 4.14385 54.3513 6.6279C52.5911 9.52386 51.3223 13.3241 54.9277 16.0426C55.8667 16.7498 56.9676 17.2065 58.1181 17.4492C60.0954 17.8668 62.0884 18.0647 64.0853 18.1099L64.1514 18.3087C59.5117 19.9416 54.9516 21.8293 50.5033 23.9432C43.8384 27.2062 37.0909 30.5071 31.3951 35.3613C26.992 39.2011 23.4784 44.5346 22.9591 50.4752C22.4232 49.4457 21.7251 48.1017 21.2618 47.2243L20.702 49.1434Z" fill="#FBA834"/>
<path d="M92.6533 50.5279C92.2644 51.2247 91.9456 51.9637 91.702 52.7235C89.7621 49.3239 86.6204 47.1561 82.8815 46.2557C85.9393 48.7376 88.6743 52.1068 88.3102 56.2176C87.8505 55.6756 87.302 55.2097 86.6974 54.8426C86.2089 53.4717 85.6083 52.1372 84.6988 50.9476C84.3212 50.4609 83.8993 50.0059 83.4465 49.5749C80.9564 47.2035 77.6189 45.6067 74.1162 44.5698C77.7024 44.0913 81.4144 44.4554 84.7618 45.6154C87.8005 46.6659 90.5337 48.3665 92.6533 50.5279Z" fill="#FBA834"/>
</svg>
