<svg width="128" height="128" viewBox="0 0 128 128" fill="none" xmlns="http://www.w3.org/2000/svg">
<path fill-rule="evenodd" clip-rule="evenodd" d="M77.0505 12.2065L67.069 25.0752L63.0269 24.0547L57.7871 23.4715H49.4035L44.1637 24.0547L37.1275 25.8041L36.6755 25.9859C32.3915 27.709 28.2395 29.7434 24.2526 32.0729L19.0129 35.8633L13.6234 40.9658L10.4795 44.7563C8.28697 47.8619 6.33282 51.1292 4.63384 54.53L4.49123 54.8155L4.25999 55.3709C2.91933 58.5913 1.84505 61.9161 1.04795 65.3121C0.351017 68.8024 0 72.353 0 75.9123V79.0159C0 81.4378 0.276211 83.8518 0.82328 86.211L1.04795 87.18L2.24561 91.1162L4.79064 97.8223L7.7848 103.362L9.31156 105.53C10.6873 107.484 12.1998 109.338 13.8376 111.078C15.4892 112.832 17.264 114.467 19.1485 115.968L21.2585 117.649L27.0971 121.44L29.1066 122.443C31.6552 123.716 34.3018 124.782 37.021 125.631L37.189 125.684C39.6396 126.449 42.1446 127.028 44.6825 127.416C47.2273 127.805 49.798 128 52.3724 128H55.6912L61.9789 127.563L67.5181 126.396L73.8058 124.355L79.4947 121.877L84.1357 119.107L87.8784 116.191L91.621 112.838L95.214 109.194L97.9088 105.695L100.154 102.196L102.101 98.697L103.598 95.344L105.394 89.9499L106.442 86.3052C106.94 83.8793 107.245 81.4176 107.353 78.9434L107.49 75.8087L107.191 70.9977L106.742 67.4989L105.993 63.7084L105.825 62.9302C105.538 61.6046 105.144 60.3047 104.646 59.0433L116.173 49.713L117.732 48.5201C118.087 48.2486 118.389 47.9143 118.624 47.5338C118.979 46.957 119.167 46.2927 119.167 45.6151V44.8969C119.167 44.416 119.111 43.9368 119 43.4689L118.892 43.0112C118.776 42.523 118.625 42.044 118.439 41.578L118.222 41.0345C117.855 40.1155 117.413 39.2281 116.901 38.3812L116.173 37.1754L114.826 35.1344L126.42 28.2745C126.575 28.1827 126.723 28.0797 126.863 27.9661L127.088 27.7835C127.392 27.5366 127.633 27.2207 127.791 26.862C127.929 26.5489 128 26.2106 128 25.8686V24.6237C128 23.2916 127.683 21.9787 127.074 20.7937L126.054 18.8064L123.808 15.5991L121.113 12.3918L117.67 9.18451L114.377 6.26879L110.185 3.35308L107.351 1.65513C106.647 1.23323 105.901 0.886993 105.124 0.622205L104.391 0.372357C103.667 0.1258 102.908 0 102.144 0H101.317C100.653 0 100 0.172468 99.423 0.50052C98.8238 0.84088 98.3274 1.33637 97.9859 1.93491L97.7591 2.33257L91.4713 13.8497L89.5075 12.7022C88.3254 12.0115 87.0693 11.4558 85.7631 11.0454L84.255 10.5717C83.4813 10.3287 82.6751 10.205 81.8642 10.205H81.1358C80.2559 10.205 79.3906 10.4296 78.6218 10.8574C78.0124 11.1965 77.4779 11.6554 77.0505 12.2065ZM78.8958 21.5763L77.3987 18.9522L74.2549 22.8884L72.159 25.5125L70.2128 27.9909L69.1085 29.5442C68.9479 29.7701 68.746 29.9636 68.5135 30.1146C68.1569 30.3461 67.7409 30.4692 67.3158 30.4692H67.0477C66.6733 30.4692 66.3051 30.3408 66.0098 30.1107C65.8218 29.9642 65.6651 29.7763 65.5563 29.5642C65.3734 29.2081 65.0664 28.9311 64.6933 28.7858L64.6479 28.7681C64.5653 28.736 64.4804 28.7101 64.394 28.6906L62.5777 28.2825L59.5835 27.6993L57.4876 27.5535L48.2057 27.6993C46.0144 27.8933 43.8449 28.2832 41.7232 28.8643L40.1215 29.303C36.136 30.6614 32.268 32.343 28.5562 34.331L28.1449 34.5513L22.9051 38.1959C20.0152 40.622 17.3186 43.2695 14.8398 46.1144L14.3718 46.6515L11.0782 51.3166L9.13205 54.8155L7.18585 59.3349L6.91959 60.0911C5.90073 62.9849 5.08919 65.9476 4.49112 68.9567L4.04199 72.6014V76.0532C4.04199 78.6076 4.24222 81.158 4.64082 83.6811L5.68878 88.0547L7.78468 93.8861C9.27982 97.0892 11.0036 100.181 12.9427 103.136L13.4736 103.945L16.6174 107.882L20.2104 111.38L23.2046 113.859L27.3964 116.629L27.8402 116.882C30.4348 118.363 33.1393 119.643 35.9297 120.711L40.2712 122.023L44.6128 123.043L48.9543 123.626H57.9367L62.428 123.043L67.8174 121.731L73.2069 119.982L78.5964 117.358L82.6385 114.879L86.5309 111.672L86.8146 111.406C89.3161 109.06 91.6243 106.516 93.7168 103.8L96.5613 99.426L98.9566 94.7608L101.053 89.221L102.4 83.3895C102.799 80.2836 102.969 77.1526 102.911 74.0218L102.849 70.7062L102.4 67.2073L101.502 63.8542L100.603 60.9385C98.9116 60.7447 97.2455 60.3699 95.6337 59.8205L95.0642 59.6264L91.3215 57.877L88.028 55.9818L86.0818 54.6697L81.8899 51.4624L79.9437 49.5672L77.0993 46.9431L74.704 44.4647C73.4086 43.2033 72.2166 41.8398 71.1395 40.3875L70.8116 39.9453L70.1525 39.0285C69.8997 38.6767 69.7636 38.2544 69.7636 37.8212C69.7636 37.4926 69.8419 37.1687 69.992 36.8764L70.016 36.8296C70.1458 36.577 70.3266 36.354 70.5472 36.1751C70.9119 35.8791 71.3674 35.7175 71.8371 35.7175H71.9344C72.4671 35.7175 72.9835 35.9007 73.3971 36.2364L73.4464 36.2764C73.5857 36.3894 73.7125 36.5172 73.8245 36.6574L74.704 37.7585L76.7999 40.3827L79.4946 43.1526L81.8899 45.4852L85.0338 48.4009L88.3274 50.8793L91.7706 53.3576L96.2229 55.7225C96.5478 55.8951 96.8855 56.0425 97.233 56.1633L97.8044 56.3621C98.464 56.5914 99.1673 56.6668 99.8605 56.5825C100.736 56.4759 101.563 56.1184 102.24 55.553L106.442 52.0456L109.436 49.713L110.185 48.9841L108.987 48.4009L106.442 47.2346L104.196 45.9226L101.801 44.4647L99.256 42.7153L96.8607 40.82L94.3157 38.6333L92.2198 37.0296L88.568 33.4735C88.3114 33.2236 88.1172 32.9168 88.0012 32.5779C87.9198 32.34 87.8783 32.0904 87.8783 31.839V30.9621C87.8783 30.5538 88.0433 30.1628 88.3358 29.8779C88.6184 29.6027 88.9972 29.4487 89.3916 29.4487H89.6363C89.9571 29.4487 90.2738 29.5217 90.5623 29.6622L90.6762 29.7177C90.9056 29.8294 91.1178 29.9735 91.3063 30.1455L98.2081 36.4465L100.903 38.6333L102.849 39.9453L105.095 41.549L107.041 42.5695L109.736 44.0273L111.655 44.907C112.07 45.097 112.51 45.2256 112.962 45.2884L114.197 45.4603C114.314 45.4765 114.433 45.4576 114.539 45.4059C114.793 45.2824 114.925 44.9973 114.855 44.7238L114.676 44.0273L113.927 42.1321L113.851 41.9693C113.404 41.0104 112.878 40.0897 112.281 39.2164L111.233 37.7585C110.05 38.3341 108.753 38.6333 107.438 38.6333H107.281C106.526 38.6333 105.775 38.5232 105.052 38.3065C104.483 38.1361 103.936 37.9011 103.421 37.6061L101.651 36.5923L98.8069 34.5513L96.2619 32.5103L94.3157 30.7608L92.5192 28.7198L91.0221 26.9704L90.8142 26.678C90.0555 25.6108 89.3745 24.4905 88.7765 23.3257L88.5978 22.8473C88.32 22.1032 88.1777 21.3153 88.1777 20.521V20.1181C88.1777 19.8279 88.2142 19.5389 88.2863 19.2578L88.4179 18.7455C88.4569 18.5935 88.5287 18.452 88.6283 18.3308L88.7799 18.1462C88.9596 17.9275 88.9922 17.6229 88.8629 17.371C88.8063 17.2607 88.7218 17.1672 88.6178 17.0997L87.4291 16.328L85.7823 15.4533L84.4591 14.8586C84.0449 14.6724 83.6124 14.5302 83.1686 14.4341L82.6302 14.3176C82.5362 14.2973 82.4403 14.287 82.3441 14.287H82.0115C81.4483 14.287 80.9917 14.7436 80.9917 15.3068C80.9917 15.404 81.0056 15.5006 81.0329 15.5939L81.1916 16.1347C81.2579 16.3605 81.3402 16.5813 81.4379 16.7953L81.8899 17.7859L82.6371 19.3624C82.7376 19.5743 82.8603 19.7748 83.0034 19.9605L83.1273 20.1214C83.4898 20.5921 83.6864 21.1696 83.6864 21.7637V22.2362C83.6864 22.4711 83.6154 22.7005 83.4827 22.8944C83.4193 22.9871 83.3427 23.0701 83.2555 23.1409L83.0831 23.2808C82.6986 23.5928 82.2185 23.7631 81.7234 23.7631C81.438 23.7631 81.1555 23.7065 80.8922 23.5966L80.8237 23.568C80.4425 23.4089 80.106 23.1588 79.8438 22.8396L79.6443 22.5968L78.8958 21.5763ZM99.2562 9.03872L100.753 11.0797L102.101 12.9749L103.598 14.7244L105.095 16.328L106.742 18.0774L107.794 19.0166C108.273 19.4446 108.893 19.6811 109.536 19.6811H109.777C110.234 19.6811 110.681 19.5171 111.031 19.2244C111.354 18.9554 111.583 18.5847 111.676 18.1754C111.777 17.7355 111.719 17.2742 111.513 16.8728L111.418 16.6895C111.295 16.4501 111.134 16.2323 110.942 16.0446L109.586 14.7244L108.089 13.1207L106.292 11.0797L104.646 9.03872L103.298 7.28929L102.55 5.97722L102.167 5.23176C102.123 5.14681 102.101 5.0527 102.101 4.95721C102.101 4.57915 102.446 4.29496 102.817 4.36723L103.452 4.49093C103.549 4.5098 103.643 4.54125 103.731 4.58447L105.095 5.24829L107.64 6.70615L110.484 8.60137L112.73 10.4966L114.826 12.3918L117.071 14.5786L119.616 17.3485L121.263 19.5353L123.06 22.1595L123.581 23.1743C123.632 23.2738 123.659 23.3841 123.659 23.496C123.659 23.8851 123.343 24.2005 122.954 24.2005H122.917C122.814 24.2005 122.711 24.1788 122.617 24.137L121.113 23.4715L119.018 22.3052L117.237 21.2382C117.127 21.1721 117.021 21.0983 116.922 21.0173L116.87 20.9756C116.419 20.6097 115.856 20.41 115.276 20.41H115.09C114.722 20.41 114.362 20.5167 114.053 20.717L114.018 20.7398C113.763 20.9058 113.555 21.1358 113.416 21.407C113.261 21.7078 113.197 22.0469 113.232 22.3832L113.246 22.5235C113.3 23.0418 113.533 23.5249 113.906 23.8884L114.153 24.1285C114.302 24.2733 114.464 24.4032 114.638 24.5162L116.173 25.5125L118.119 26.6788L119.317 27.262L117.521 28.4282L113.628 30.7608L111.832 31.9271L110.484 32.9476L108.987 33.9681L108.724 34.1387C108.31 34.408 107.826 34.5513 107.331 34.5513C106.943 34.5513 106.56 34.463 106.211 34.2931L104.945 33.6765L102.699 32.2187L100.753 30.7608L98.3579 28.574C96.9635 27.3131 95.685 25.9296 94.5378 24.4401L94.4655 24.3462L92.8187 21.8679L92.6287 21.4978C92.4584 21.1661 92.3696 20.7987 92.3696 20.426C92.3696 19.9413 92.5197 19.4685 92.7992 19.0726L94.0164 17.3485L95.3638 15.3075L96.7112 12.9749L97.7591 11.3713L99.2562 9.03872Z" fill="#FBA834"/>
<path d="M10.8392 67.0115L9.85851 67.6856C9.47891 67.9465 9.16318 68.2899 8.93492 68.69C8.67166 69.1514 8.5332 69.6735 8.5332 70.2048V73.7646C8.5332 74.5432 8.58838 75.3208 8.69831 76.0916L9.28174 80.1823L10.7788 85.8679L12.725 91.1162L14.264 94.2802C15.0335 95.8619 15.9186 97.3848 16.9123 98.8362C18.1106 100.587 19.4624 102.227 20.9516 103.737L22.3063 105.112L22.628 105.425C25.0053 107.74 27.5497 109.877 30.2408 111.818C32.9311 113.467 35.7509 114.896 38.6724 116.089L38.9238 116.191L43.5648 117.649L43.7971 117.696C46.5298 118.247 49.3105 118.524 52.0981 118.524H53.0005C56.9777 118.524 60.9428 118.084 64.8233 117.212L69.6139 115.462C72.9027 114.007 76.0756 112.302 79.1049 110.364L79.794 109.923L84.2852 106.132L87.8782 102.196L92.07 96.0729L94.9145 90.3873L96.711 85.5764L98.0583 80.1823L98.6572 75.3713V70.5253C98.6572 70.0672 98.5676 69.6135 98.3936 69.1897C98.1735 68.654 97.8244 68.1809 97.3774 67.8126L96.9012 67.4202C96.379 66.9898 95.7874 66.6514 95.1517 66.4192L93.6105 65.8564C92.8839 65.5911 92.1387 65.3803 91.3808 65.2259L86.0817 64.1458L77.6981 62.8338L68.566 62.2506H47.9063H41.6186L31.4385 62.8338L23.8034 63.5627L18.5118 64.4398C17.3503 64.6323 16.2049 64.9115 15.0851 65.275L12.9666 65.9626C12.2107 66.208 11.4941 66.5613 10.8392 67.0115Z" fill="#FBA834"/>
<path d="M17.0667 75.8087L13.1743 74.7882L13.2707 75.6798C13.6052 78.7742 14.1735 81.8388 14.9708 84.8474L16.6176 89.3668L19.0129 94.1777L21.8574 98.4055L22.5205 99.1709C24.7683 101.765 27.2527 104.144 29.9416 106.278L34.2831 109.194L37.5045 110.854C38.7487 111.496 40.0372 112.047 41.3602 112.504C43.1254 113.114 44.9449 113.554 46.7939 113.818L47.5426 113.924C49.2801 114.172 51.0329 114.296 52.788 114.296H56.7392L60.1825 113.859L60.7012 113.733C63.9439 112.943 67.1232 111.913 70.2129 110.652L74.7041 108.027L78.896 104.82L81.1494 102.699C82.6386 101.297 84.0067 99.7719 85.2391 98.1397C86.4973 96.4734 87.6094 94.7017 88.5631 92.8443L89.8246 90.3873L91.7708 85.5764L92.9685 81.4944L93.3517 79.6908C93.6941 78.0791 93.8667 76.4359 93.8667 74.7882L89.5252 75.8087L81.441 77.2666L69.7638 78.2871L60.6316 78.7244H50.1521L39.0737 78.2871L31.4386 77.7039L23.3544 76.8292L17.0667 75.8087Z" fill="#FED397"/>
<path d="M18.1149 69.1025L16.3412 69.6143C15.6557 69.8121 15.6398 70.7775 16.3184 70.9977L19.0131 71.8725L23.3546 72.7472L28.1453 73.3303L34.1336 73.7677L39.8225 74.205H45.3616H59.8833H66.4704L71.8599 73.7677L76.9499 73.3303L82.4891 72.7472L87.2798 71.8725L91.1722 70.9977L91.2226 70.9788C91.879 70.733 91.879 69.8046 91.2226 69.5588C91.189 69.5462 91.1546 69.536 91.1195 69.5283L86.5312 68.5194L79.9441 67.3531L72.9078 66.4784L65.2728 66.041H48.6552L38.9242 66.4784L31.5885 66.9157L23.8037 67.9362L18.1149 69.1025Z" fill="#FED397"/>
</svg>
