<svg width="128" height="128" viewBox="0 0 128 128" fill="none" xmlns="http://www.w3.org/2000/svg">
<g clip-path="url(#clip0_84_136)">
<path d="M14.8279 118.424C12.0106 118.424 9.37049 116.674 8.3695 113.868C7.09743 110.302 8.95807 106.379 12.5243 105.108C21.8032 101.791 31.5441 96.5854 33.1727 94.0919C35.5133 86.4711 43.2016 68.8509 43.5307 68.0967C45.0464 64.6265 49.0894 63.0422 52.5586 64.559C56.0288 66.0758 57.612 70.1166 56.0963 73.5869C53.9213 78.5644 47.9112 92.7006 46.2341 98.2699C43.4822 107.408 26.8187 114.568 17.1305 118.023C16.37 118.295 15.5927 118.424 14.8279 118.424Z" fill="#FBA834"/>
<path d="M69.4783 128C68.6735 128 67.856 127.857 67.0586 127.556C63.5166 126.218 61.7277 122.263 63.0641 118.721C66.0228 110.88 69.2104 101.234 70.089 97.0337C67.1388 94.2174 60.0306 88.3401 53.9529 83.5947C50.9679 81.2636 50.4384 76.9559 52.7684 73.9708C55.0995 70.9879 59.4083 70.4584 62.3922 72.7874C80.9659 87.2917 82.4616 90.1596 83.1008 91.3832C84.3771 93.8303 85.9656 96.8765 75.8935 123.562C74.8566 126.307 72.2492 128 69.4783 128Z" fill="#FBA834"/>
<path d="M80.9152 29.8841C89.1675 29.8841 95.8573 23.1943 95.8573 14.9421C95.8573 6.68979 89.1675 0 80.9152 0C72.6629 0 65.9731 6.68979 65.9731 14.9421C65.9731 23.1943 72.6629 29.8841 80.9152 29.8841Z" fill="#FBA834"/>
<path d="M71.8526 28.322C71.8526 28.322 73.4833 28.5224 75.0022 29.2281C76.4525 29.9032 77.9376 30.959 77.9376 30.959L77.9756 30.9843C82.085 34.1265 85.3453 40.028 82.8793 45.6563L69.6502 75.8706C66.7738 82.4345 58.4758 83.6433 52.4361 80.9968C51.4077 80.5464 50.4247 79.9863 49.5112 79.3271C45.2288 76.2461 42.0296 70.5798 44.5305 64.8681L57.7628 34.6539C60.2173 29.0467 66.7886 27.4402 71.8526 28.322Z" fill="#FBA834"/>
<path d="M30.2184 53.3108C29.0371 53.3108 27.8452 52.9522 26.8168 52.2054C24.2241 50.3247 23.6461 46.6995 25.5257 44.1057C28.3736 40.1777 35.6474 30.8176 41.6713 28.7534C47.2838 26.8295 63.9198 27.803 68.8846 28.1469C72.0806 28.3684 74.4919 31.1382 74.2704 34.3353C74.0499 37.5302 71.3117 39.9394 68.083 39.7221C59.0794 39.1008 47.827 38.9542 45.4273 39.7316C43.6796 40.4309 38.6588 45.767 34.9185 50.9175C33.7836 52.4807 32.0137 53.3108 30.2184 53.3108Z" fill="#FBA834"/>
<path d="M90.2342 47.2532C84.6829 47.2532 78.8911 46.9189 75.5654 46.6879C72.3694 46.4664 69.9581 43.6965 70.1796 40.4995C70.4001 37.3045 73.133 34.8891 76.367 35.1127C85.3706 35.7361 96.623 35.8806 99.0216 35.1032C100.779 34.4007 105.8 29.0646 109.531 23.9183C111.413 21.3256 115.04 20.7466 117.634 22.6272C120.228 24.5079 120.806 28.1353 118.926 30.729C116.079 34.657 108.804 44.0161 102.78 46.0803C100.173 46.9748 95.3046 47.2532 90.2342 47.2532Z" fill="#FBA834"/>
</g>
<defs>
<clipPath id="clip0_84_136">
<rect width="128" height="128" fill="white"/>
</clipPath>
</defs>
</svg>
