<svg width="36" height="36" viewBox="0 0 36 36" fill="none" xmlns="http://www.w3.org/2000/svg">
<g clip-path="url(#clip0_193_14)">
<rect x="0.5" y="0.5" width="35" height="35" rx="7.5" stroke="#FBA834"/>
<path d="M23.1888 16.572L27.6066 10.7564L30.6202 13.0458L26.2024 18.8641L23.1888 16.572ZM22.2846 15.9019L26.9822 9.71438L23.8181 7.31321L19.1206 13.5007L22.2846 15.9019ZM20.3524 9.02672L18.9954 11.809L23.0032 6.53555L20.0142 4.26446L17.4661 7.61907L20.3524 9.02672ZM18.8942 3.87704L15.6148 1.38586L12.6617 5.27485L16.4353 7.11493L18.8942 3.87704ZM26.4176 20.437L16.6442 13.2152L15.9467 13.2792L16.2673 13.4198L20.6379 23.1532L19.4763 23.3114L15.4207 14.2763L12.6082 13.0317L12.327 10.8633L15.098 12.2288L17.6546 11.9946L18.8499 9.54563L11.0522 5.74243L5.37939 13.6533L12.4873 24.3752L10.8912 34.6141H23.9763V26.1998L26.4577 22.7595L27.2107 19.3901L26.4176 20.437Z" fill="#FBA834"/>
</g>
<defs>
<clipPath id="clip0_193_14">
<rect width="36" height="36" fill="white"/>
</clipPath>
</defs>
</svg>
