<svg width="128" height="128" viewBox="0 0 128 128" fill="none" xmlns="http://www.w3.org/2000/svg">
<path fill-rule="evenodd" clip-rule="evenodd" d="M14 7.44793V74.9371C21.4599 94.3683 35.0911 110.814 52.8008 121.749L62.4422 127.703C63.0899 128.103 63.9085 128.1 64.5539 127.696L74.6736 121.364C91.8206 110.635 105.311 94.9585 113.364 76.4035L114 74.9371V8.56157C114 7.32344 113.3 6.1917 112.192 5.63867L111.902 5.49389C111.324 5.20512 110.655 5.1544 110.04 5.3526L106.705 6.42664C99.3459 8.7971 91.5199 9.34035 83.9033 8.00948C78.3453 7.03831 73.0041 5.08739 68.1286 2.24766L64.8832 0.357401C64.0336 -0.137468 62.9788 -0.117095 62.1489 0.410217L58.2901 2.8621C54.4588 5.29653 50.2361 7.05157 45.8079 8.04996C40.0109 9.35698 33.9935 9.3377 28.205 7.99358L16.6815 5.31776C15.9466 5.14711 15.1756 5.36734 14.6417 5.90042C14.2309 6.31063 14 6.86737 14 7.44793ZM24 21.7213V70.8652C24 72.8386 24.5838 74.7678 25.678 76.41L30.5939 83.7881C36.751 93.029 44.4042 101.18 53.2394 107.906L63.0534 115.378C63.7692 115.923 64.7606 115.923 65.4764 115.378L74.6539 108.391C83.9043 101.348 91.8557 92.7469 98.151 82.9728L102.407 76.3647C103.447 74.7501 104 72.8703 104 70.9498V22.0939C104 21.0125 103.433 20.0104 102.506 19.4538L102.17 19.2524C101.648 18.9389 101.019 18.8577 100.434 19.0283L96.095 20.2945C91.1836 21.7278 86.015 22.0518 80.9631 21.243C77.2727 20.6522 73.7026 19.4662 70.3923 17.7312L65.5126 15.1737C64.7334 14.7654 63.8015 14.7748 63.0308 15.199L58.2341 17.8386C55.2106 19.5025 51.9376 20.6659 48.5421 21.2836C44.2354 22.0671 39.8137 21.9579 35.551 20.9626L27.3649 19.0515C26.5753 18.8671 25.7446 19.0418 25.096 19.5284C24.406 20.0462 24 20.8586 24 21.7213Z" fill="#FBA834"/>
<path d="M31 69.3512V26.0479L37.7634 27.1859C41.2343 27.77 44.7738 27.8229 48.2605 27.3428C52.0606 26.8197 55.7477 25.6705 59.172 23.9419L64 21.5048L68.7566 23.7915C72.5598 25.6199 76.6372 26.8116 80.8263 27.3191C84.9157 27.8145 89.058 27.6515 93.0958 26.8362L97 26.0479V69.3512C97 71.3938 96.3745 73.3874 95.2076 75.0639L92.1478 79.4599C86.7433 87.2247 80.2642 94.1833 72.9044 100.128L64 107.319L55.0956 100.128C47.7358 94.1833 41.2567 87.2247 35.8522 79.4599L32.7924 75.0639C31.6255 73.3874 31 71.3938 31 69.3512Z" fill="#FED397"/>
</svg>
