<svg width="128" height="128" viewBox="0 0 128 128" fill="none" xmlns="http://www.w3.org/2000/svg">
<path d="M1.65399 51.2433L1.52535 51.4578C0.52724 53.1213 0 55.0248 0 56.9647V72.2377C0 74.0389 0.533147 75.7997 1.53225 77.2984C2.491 78.7365 3.83853 79.8727 5.41796 80.5747L5.5986 80.6549C6.85224 81.2121 8.20885 81.5 9.58073 81.5H46.5V118.206C46.5 119.393 46.7075 120.571 47.1132 121.686L47.3003 122.201C48.0707 124.319 49.6237 126.062 51.6399 127.07C52.8631 127.682 54.212 128 55.5797 128H72.4203C73.788 128 75.1369 127.682 76.3601 127.07C78.3763 126.062 79.9293 124.319 80.6997 122.201L80.8868 121.686C81.2925 120.571 81.5 119.393 81.5 118.206V81.5H117.15C118.376 81.5 119.596 81.3166 120.768 80.956L122.507 80.4209C124.427 79.83 126.045 78.5191 127.021 76.7626C127.663 75.6066 128 74.306 128 72.9836V56.1151C128 54.7242 127.676 53.3523 127.054 52.1082C126.054 50.1086 124.343 48.5551 122.257 47.7525L121.104 47.3094C119.713 46.7744 118.236 46.5 116.745 46.5H81.5V9.79421C81.5 8.60721 81.2925 7.42935 80.8868 6.31382L80.6997 5.79911C79.9293 3.6807 78.3763 1.93815 76.3601 0.930075C75.1369 0.318431 73.788 0 72.4203 0H55.5797C54.212 0 52.8631 0.318431 51.6399 0.930075C49.6237 1.93815 48.0707 3.68069 47.3003 5.7991L47.1132 6.31381C46.7075 7.42935 46.5 8.60721 46.5 9.79421V46.5H10.0316C8.3713 46.5 6.73835 46.9231 5.28694 47.7295C3.78871 48.5618 2.5358 49.7737 1.65399 51.2433Z" fill="#FBA834"/>
</svg>
