<svg width="128" height="128" viewBox="0 0 128 128" fill="none" xmlns="http://www.w3.org/2000/svg">
<path d="M1.50492 114.534L4.86768 109.784C5.58584 108.77 7.04563 108.649 7.92057 109.532L18.4525 120.158C19.2754 120.989 19.2138 122.345 18.3191 123.097L14.337 126.445C13.1426 127.449 11.6323 128 10.0719 128C8.413 128 6.81447 127.378 5.592 126.257L2.44753 123.372C1.27069 122.293 0.516566 120.83 0.320226 119.245C0.114204 117.582 0.536705 115.902 1.50492 114.534Z" fill="#FBA834"/>
<path d="M20.6504 117.966L10.6498 107.875C9.92237 107.142 9.87385 105.974 10.5379 105.182L14.8249 100.07C15.5813 99.1684 16.9493 99.1116 17.7779 99.9476L28.9478 111.218C29.8128 112.091 29.6935 113.53 28.6966 114.248L23.2403 118.181C22.4418 118.756 21.3433 118.665 20.6504 117.966Z" fill="#FBA834"/>
<path d="M31.7391 108.932L20.7549 97.3455C19.9861 96.5346 20.0309 95.251 20.8544 94.4957L24.7746 90.8999C25.5791 90.1619 26.8268 90.2055 27.5779 90.9978L38.5622 102.584C39.331 103.395 39.2861 104.679 38.4627 105.434L34.5425 109.03C33.738 109.768 32.4903 109.725 31.7391 108.932Z" fill="#FBA834"/>
<path d="M51.8619 109.138L20.5992 77.5942C20.2049 77.1964 19.9955 76.6515 20.0219 76.0921L20.5111 65.7275C20.563 64.6282 21.4933 63.7773 22.5929 63.8236L34.7945 64.3365C35.3055 64.358 35.7888 64.5744 36.1452 64.9413L65.62 95.2879C65.9826 95.6612 66.1854 96.1611 66.1854 96.6814V107.73C66.1854 108.835 65.2899 109.73 64.1854 109.73H53.2825C52.7489 109.73 52.2375 109.517 51.8619 109.138Z" fill="#FBA834"/>
<path d="M52.4488 73.82L44.3317 65L95.5317 5.78L100.527 25.94L52.4488 73.82Z" fill="#FBA834"/>
<path d="M65.561 86.42L56.8195 77.6L104.898 29.72L125.502 34.76L65.561 86.42Z" fill="#FBA834"/>
<path d="M106.146 23.42L100.527 2H128V28.46L106.146 23.42Z" fill="#FBA834"/>
</svg>
