<svg width="733" height="873" viewBox="0 0 733 873" fill="none" xmlns="http://www.w3.org/2000/svg">
<path d="M163.305 638.212C159.253 638.904 155.235 639.597 151.186 640.286C141.566 641.89 131.672 643.646 123.38 648.733C118.885 651.506 115.049 655.12 111.693 659.162C111.463 659.083 111.199 659.035 110.966 658.956C103.907 657.016 96.5504 655.055 89.3408 655.38C91.7611 653.234 94.1849 651.05 96.6052 648.904C100.568 645.397 104.569 641.863 109.368 639.638C112.042 638.407 114.895 637.619 117.771 636.998C132.732 633.666 148.532 634.091 163.305 638.212Z" fill="#FBA834"/>
<path d="M307.177 870.686C305.593 870.906 304.016 871.022 302.419 870.872C299.388 870.58 296.313 869.315 294.537 866.813C293.635 865.527 293.08 863.96 292.004 862.832C291.143 861.986 290.001 861.423 288.853 860.995C281.613 858.108 273.025 857.923 267.173 852.767C260.584 846.97 259.967 837.069 259.826 828.262C259.672 817.782 259.487 807.302 259.333 796.822C259.319 795.787 259.278 794.645 258.654 793.808C257.937 792.801 256.583 792.461 255.363 792.163C241.088 788.772 227.094 781.347 219.171 769.057C223.871 768.097 228.455 766.801 232.932 765.029C234.992 768.481 238.324 771.268 242.017 772.999C247.533 775.598 253.721 776.256 259.826 776.575C265.928 776.928 272.829 777.391 276.696 782.142C279.148 785.183 279.7 789.29 280.166 793.164C281.959 808.78 283.344 824.443 284.362 840.117C284.482 842.297 284.633 844.515 285.36 846.593C286.964 851.094 291.054 854.118 294.671 857.251C299.343 861.211 303.557 865.746 307.177 870.686Z" fill="#FBA834"/>
<path d="M555.195 745.004C555.061 745.666 554.66 746.245 554.266 746.794C551.969 749.752 548.839 752.028 545.325 753.317C545.668 755.71 545.373 758.172 544.129 760.215C542.733 762.584 539.871 764.209 537.183 763.832C535.531 767.894 533.079 771.912 528.924 772.666C525.04 773.366 521.355 770.897 518.52 768.175C512.277 762.193 507.539 754.288 499.74 750.534C493.699 747.675 486.607 747.736 480.127 749.44C478.499 749.855 476.932 750.376 475.365 750.962C470.655 752.721 466.185 755.097 461.779 757.442C455.31 760.849 448.875 764.295 442.406 767.733C433.596 772.423 423.945 777.236 414.13 775.553C405.91 774.116 399.214 768.415 392.947 762.903C386.139 756.859 379.293 750.846 372.484 744.836C381.895 736.331 389.883 726.245 396.767 715.532C401.94 707.472 406.739 698.86 412.749 691.445C419.064 695.456 424.494 700.958 429.485 706.574C432.17 709.59 434.82 712.707 437.538 715.727C441.488 720.149 445.649 724.38 450.415 727.942C456.5 732.477 463.888 735.772 471.361 736.166C473.73 736.289 476.113 736.115 478.447 735.6C483.117 734.575 487.388 732.254 491.588 729.968C497.923 726.519 504.228 723.07 510.529 719.652C520.23 724.777 530.193 729.382 540.382 733.461C541.16 728.216 539.744 722.655 536.484 718.435C540.282 718.703 543.738 721.092 546.09 724.123C548.476 727.126 549.922 730.746 551.376 734.301C552.47 737.033 553.563 739.803 554.691 742.536C555.017 743.321 555.339 744.174 555.195 745.004Z" fill="#FBA834"/>
<path d="M714.426 434.951C713.624 422.798 711.166 410.326 704.199 400.292C696.705 389.462 684.854 382.619 673.417 376.099C685.876 389.867 697.525 405.729 699.736 424.18C700.627 431.42 699.948 438.643 698.077 445.603C694.659 458.469 687.106 470.454 677.514 479.854C662.769 494.403 643.684 503.639 624.418 511.229C605.292 518.723 585.566 524.85 565.291 528.103C539.316 532.261 512.72 531.637 486.778 535.7C483.912 536.118 481.043 536.636 478.204 537.191C429.719 546.962 385.978 577.956 360.184 620.13C365.944 595.142 376.163 571.189 393.246 552.279C415.941 527.14 452.688 512.806 484.848 523.389C476.024 514.297 477.21 498.668 484.447 488.243C491.684 477.818 503.518 471.578 515.246 466.741C559.288 448.51 609.138 444.595 655.491 455.757C641.535 439.939 621.74 430.772 604.479 418.66C587.215 406.548 571.191 388.715 571.627 367.628C572.055 346.04 589.385 328.817 606.872 316.15C625.439 302.704 645.635 291.453 666.866 282.728C688.063 274.003 710.302 267.774 733 264.281C690.319 257.16 647.01 249.875 607.829 231.496C587.194 221.819 565.884 205.816 564.434 183.09C563.193 163.991 576.618 147.166 590.934 134.433C608.058 119.205 627.582 106.647 648.542 97.374C600.091 110.96 552.339 127.193 505.626 145.955C445.314 170.162 386.719 198.606 330.393 230.979C293.142 252.378 256.309 276.039 228.372 308.666C219.713 318.782 212.003 329.921 205.633 341.731C194.628 362.129 187.666 384.546 186.908 407.323C186.771 411.831 180.775 413.257 178.68 409.233L169.174 390.803C165.098 404.138 161.474 425.393 170.73 435.812C180.021 446.234 192.143 453.659 202.99 462.425C254.533 504.099 273.68 580.541 250.378 642.143C250.358 642.544 250.303 642.942 250.248 643.343C249.761 644.32 249.274 645.3 248.756 646.243V646.277C244.862 653.535 240.357 660.388 235.205 666.744C226.655 677.303 216.199 686.655 203.528 691.547C191.409 696.199 177.981 696.463 165.18 694.29C157.254 692.939 149.218 690.542 142.701 685.986C140.407 682.49 138.117 678.955 135.824 675.455C135.731 675.318 135.67 675.215 135.577 675.074C139.348 670.121 143.661 665.698 148.985 662.428C157.312 657.344 167.175 655.585 176.791 653.98C180.843 653.288 184.892 652.599 188.91 651.906C174.138 647.789 158.371 647.361 143.411 650.693C140.5 651.31 137.651 652.098 134.977 653.329C130.178 655.554 126.177 659.092 122.248 662.599C122.073 662.757 121.899 662.914 121.72 663.072C118.642 661.173 115.148 660.151 111.689 659.167C111.46 659.088 111.196 659.04 110.962 658.962C103.904 657.021 96.5468 655.06 89.3373 655.386C86.9581 655.496 84.596 655.838 82.2511 656.521C78.5829 657.601 75.2027 659.496 71.6785 660.984C61.4453 665.366 49.9024 666.703 38.9356 664.69C32.4082 663.511 25.8363 661.193 19.3192 662.359C11.352 663.747 5.12978 670.114 0.919917 677.018C0.590807 677.57 0.26174 678.088 0.12804 678.715C-0.20107 679.901 0.169152 681.159 0.508546 682.349C2.1918 687.889 3.84081 693.429 5.49322 698.969C7.84155 698.856 10.1453 698.277 12.3051 697.32C14.7014 703.299 16.0727 709.662 16.3743 716.066C30.1729 715.784 42.5865 723.995 53.4506 732.494C64.3455 740.992 75.3295 750.399 88.8299 753.214C97.9318 755.096 107.613 753.56 115.834 749.275C123.801 754.311 132.715 757.821 141.858 760.207C153.541 763.228 165.619 764.496 177.648 765.394C192.674 766.55 208.235 767.098 222.908 764.153C227.608 763.193 232.191 761.897 236.669 760.125C238.729 763.577 242.061 766.361 245.75 768.096C251.266 770.694 257.457 771.353 263.56 771.671C269.662 772.024 276.563 772.487 280.43 777.239C282.881 780.28 283.433 784.387 283.899 788.261C285.689 803.876 287.077 819.54 288.095 835.214C288.215 837.394 288.366 839.612 289.093 841.689C290.697 846.191 294.787 849.214 298.404 852.348C303.08 856.307 307.293 860.843 310.914 865.783L311.476 866.517C312.909 868.532 314.369 870.682 316.625 871.704C318.096 872.382 319.762 872.502 321.363 872.554C327.811 872.725 334.387 871.697 340.036 868.58C348.34 863.997 353.869 854.819 354.068 845.33C354.263 835.841 349.104 826.437 341.031 821.497C343.42 826.307 344.75 831.628 344.836 836.986C344.853 837.956 344.798 838.991 344.219 839.797C342.992 841.504 340.119 840.822 338.799 839.18C337.479 837.538 337.16 835.347 336.361 833.366C334.709 829.163 330.797 825.916 326.323 825.08C321.884 824.243 317.05 825.83 313.968 829.149C319.776 809.581 322.148 789.2 324.517 768.915C324.818 766.32 325.124 763.728 325.329 761.095C339.049 759.138 352.141 753.166 363.311 744.921C366.235 742.765 368.995 740.502 371.665 738.064C381.076 729.559 389.063 719.473 395.947 708.76C401.12 700.7 405.92 692.089 411.93 684.673C418.244 688.684 423.675 694.187 428.666 699.802C431.351 702.819 433.997 705.935 436.719 708.955C440.668 713.378 444.83 717.612 449.596 721.17C455.681 725.706 463.068 729 470.542 729.395C472.911 729.518 475.293 729.343 477.632 728.829C482.301 727.804 486.572 725.483 490.772 723.196C497.107 719.748 503.412 716.299 509.713 712.881C511.712 711.78 513.707 710.714 515.705 709.617C522.25 706.045 528.897 702.411 536.145 700.683C543.426 698.959 551.472 699.312 557.787 703.289C563.293 706.755 566.872 712.528 571.376 717.214C575.847 721.931 582.398 725.887 588.62 723.971C593.211 722.572 596.234 718.483 598.761 714.3C601.411 713.536 603.777 711.787 605.271 709.456C606.512 707.447 607.14 705.071 607.03 702.723C610.633 701.005 613.31 697.166 613.859 693.079C614.617 687.567 612.062 682.047 608.363 677.906C604.634 673.765 599.838 670.803 595.107 667.878C598.552 672.976 599.646 679.593 598.062 685.53C584.856 682.798 573.69 674.385 562.583 666.744C551.441 659.133 539.072 651.896 525.579 652.126C529.603 656.418 531.311 662.764 529.974 668.482C519.785 665.64 508.818 665.568 498.602 668.31C496.768 668.818 494.896 669.421 493.46 670.652C491.008 672.764 490.148 676.367 487.447 678.132C491.231 665.921 491.392 652.613 487.889 640.319C487.179 637.875 486.37 635.454 485.043 633.312C481.845 627.96 476.199 624.618 470.703 621.621C479.774 608.114 493.648 598.1 508.191 590.565C542.271 572.848 580.999 566.681 617.397 554.504C653.829 542.327 690.548 521.504 706.202 486.426C712.341 472.696 714.806 457.574 714.693 442.48C714.669 439.946 714.597 437.433 714.426 434.951ZM616.835 443.453C498.808 390.501 370.764 362.719 241.513 361.834C370.688 353.281 502.928 382.085 616.835 443.453ZM328.082 301.97C398.625 278.569 472.462 264.373 546.703 260.434C583.612 258.319 621.751 258.312 657.404 269.31C621.144 260.952 583.859 262.546 547.067 265.604C454.885 272.985 363.911 293.006 276.991 324.449C259.48 330.456 242.38 337.59 225.129 344.446C258.376 327.96 292.744 313.637 328.082 301.97ZM220.083 382.657C266.518 392.181 309.076 414.45 350.835 435.973C392.468 457.992 433.394 482.717 468.074 514.843C430.164 486.865 389.396 463.687 347.75 441.9C306.097 420.213 264.948 397.251 220.083 382.657Z" fill="#FBA834"/>
<path d="M163.168 387.334C150.469 434.942 165.917 439.567 200.35 465.556C238.177 495.738 258.376 544.436 258.205 592.366C257.951 608.712 255.401 624.835 250.464 640.533C256.405 573.772 215.513 504.388 153.006 479.132C140.034 473.904 126.304 470.339 114.374 463.057C102.443 455.806 99.7145 434.421 99.7454 420.475L114.223 435.316C117.397 438.559 122.715 435.46 121.539 431.082C112.183 396.368 117.912 357.931 132.434 324.636C149.619 285.259 177.96 251.916 207.333 220.572C286.21 136.419 375.573 62.1503 472.702 0C455.324 14.9813 440.315 32.6607 428.382 52.2393C414.508 75.0644 404.508 105.017 432.924 126.443C440.326 132.017 449.003 135.617 458.07 137.53C473.655 140.821 489.363 142.381 505.102 142.738L505.623 144.304C469.054 157.174 433.113 172.052 398.052 188.713C345.522 214.432 292.34 240.449 247.447 278.708C212.743 308.972 185.05 351.009 180.957 397.832C176.733 389.717 171.231 379.124 167.58 372.209L163.168 387.334Z" fill="#FBA834"/>
<path d="M730.268 398.247C727.203 403.739 724.69 409.563 722.771 415.552C707.481 388.757 682.719 371.671 653.25 364.575C677.35 384.136 698.907 410.691 696.037 443.091C692.414 438.82 688.091 435.148 683.325 432.255C679.475 421.449 674.741 410.931 667.573 401.555C664.597 397.719 661.272 394.133 657.703 390.735C638.076 372.045 611.772 359.46 584.164 351.287C612.43 347.516 641.686 350.385 668.07 359.528C692.019 367.807 713.562 381.212 730.268 398.247Z" fill="#FBA834"/>
</svg>
