<svg width="93" height="111" viewBox="0 0 93 111" fill="none" xmlns="http://www.w3.org/2000/svg">
<path d="M20.7197 80.9737C20.2056 81.0616 19.6958 81.1494 19.1821 81.2369C17.9616 81.4404 16.7063 81.6631 15.6541 82.3086C15.0839 82.6605 14.5972 83.1189 14.1714 83.6317C14.1422 83.6217 14.1087 83.6157 14.0792 83.6056C13.1836 83.3595 12.2502 83.1107 11.3354 83.152C11.6425 82.8797 11.95 82.6026 12.2571 82.3303C12.7599 81.8854 13.2675 81.4369 13.8765 81.1547C14.2157 80.9985 14.5776 80.8985 14.9426 80.8197C16.8407 80.397 18.8454 80.4509 20.7197 80.9737Z" fill="#1F2544"/>
<path d="M38.9735 110.469C38.7725 110.497 38.5724 110.512 38.3697 110.493C37.9852 110.456 37.5951 110.295 37.3698 109.978C37.2554 109.815 37.1849 109.616 37.0483 109.473C36.9392 109.365 36.7943 109.294 36.6486 109.24C35.73 108.873 34.6404 108.85 33.8979 108.196C33.0619 107.46 32.9836 106.204 32.9658 105.087C32.9462 103.757 32.9227 102.427 32.9032 101.098C32.9014 100.966 32.8962 100.821 32.817 100.715C32.7261 100.587 32.5543 100.544 32.3995 100.506C30.5883 100.076 28.8128 99.1341 27.8076 97.5748C28.4039 97.453 28.9855 97.2886 29.5535 97.0637C29.815 97.5017 30.2377 97.8553 30.7062 98.075C31.406 98.4047 32.1911 98.4882 32.9658 98.5287C33.74 98.5735 34.6156 98.6322 35.1062 99.235C35.4172 99.6208 35.4873 100.142 35.5464 100.633C35.7739 102.615 35.9496 104.602 36.0788 106.591C36.094 106.867 36.1132 107.149 36.2054 107.412C36.4089 107.983 36.9278 108.367 37.3867 108.765C37.9796 109.267 38.5141 109.842 38.9735 110.469Z" fill="#1F2544"/>
<path d="M70.4408 94.5229C70.4239 94.6069 70.373 94.6804 70.323 94.75C70.0315 95.1253 69.6344 95.4141 69.1886 95.5777C69.2321 95.8813 69.1947 96.1936 69.0368 96.4528C68.8598 96.7534 68.4966 96.9595 68.1556 96.9117C67.9459 97.4271 67.6349 97.9369 67.1077 98.0326C66.6149 98.1213 66.1474 97.8082 65.7876 97.4628C64.9956 96.7038 64.3945 95.7008 63.4049 95.2245C62.6385 94.8617 61.7386 94.8696 60.9166 95.0857C60.7099 95.1384 60.5112 95.2045 60.3124 95.2789C59.7148 95.502 59.1476 95.8034 58.5886 96.1009C57.7679 96.5333 56.9515 96.9704 56.1307 97.4067C55.0128 98.0017 53.7884 98.6124 52.5432 98.3988C51.5001 98.2166 50.6506 97.4932 49.8555 96.7938C48.9917 96.027 48.1231 95.2641 47.2593 94.5016C48.4532 93.4225 49.4667 92.1428 50.3401 90.7836C50.9964 89.761 51.6054 88.6684 52.3679 87.7275C53.1691 88.2364 53.858 88.9346 54.4913 89.647C54.8319 90.0298 55.1681 90.4252 55.5131 90.8084C56.0141 91.3695 56.5422 91.9062 57.1468 92.3581C57.9188 92.9336 58.8562 93.3516 59.8044 93.4016C60.1049 93.4172 60.4072 93.3951 60.7034 93.3298C61.2958 93.1998 61.8378 92.9053 62.3706 92.6152C63.1744 92.1776 63.9743 91.74 64.7738 91.3064C66.0047 91.9566 67.2687 92.5408 68.5614 93.0584C68.6601 92.3929 68.4805 91.6874 68.0668 91.152C68.5488 91.1859 68.9872 91.4891 69.2856 91.8736C69.5883 92.2546 69.7719 92.7139 69.9563 93.165C70.095 93.5116 70.2338 93.8631 70.3769 94.2097C70.4182 94.3093 70.4591 94.4176 70.4408 94.5229Z" fill="#1F2544"/>
<path d="M90.6434 55.1849C90.5416 53.643 90.2297 52.0606 89.3459 50.7874C88.3951 49.4134 86.8914 48.5452 85.4404 47.7179C87.021 49.4647 88.499 51.4773 88.7796 53.8182C88.8927 54.7369 88.8066 55.6533 88.5691 56.5363C88.1354 58.1687 87.1772 59.6893 85.9602 60.882C84.0894 62.7279 81.668 63.8997 79.2235 64.8627C76.7969 65.8135 74.2942 66.5908 71.7218 67.0036C68.4261 67.5312 65.0517 67.452 61.7604 67.9675C61.3968 68.0205 61.0327 68.0862 60.6726 68.1567C54.5209 69.3963 48.9713 73.3288 45.6987 78.6796C46.4294 75.5092 47.726 72.4701 49.8934 70.0709C52.7728 66.8814 57.4352 65.0628 61.5155 66.4055C60.3959 65.252 60.5464 63.269 61.4646 61.9463C62.3828 60.6236 63.8843 59.832 65.3723 59.2183C70.9602 56.9052 77.2849 56.4084 83.166 57.8246C81.3953 55.8177 78.8838 54.6547 76.6938 53.118C74.5034 51.5812 72.4704 49.3186 72.5256 46.6432C72.58 43.9042 74.7787 41.719 76.9974 40.1118C79.3532 38.4059 81.9155 36.9784 84.6092 35.8714C87.2986 34.7644 90.1201 33.9741 93 33.5309C87.5848 32.6275 82.0899 31.7032 77.1188 29.3714C74.5008 28.1435 71.7971 26.1131 71.6131 23.2298C71.4556 20.8066 73.1589 18.6718 74.9753 17.0564C77.1479 15.1243 79.625 13.5311 82.2843 12.3545C76.1371 14.0782 70.0785 16.1378 64.1518 18.5183C56.4996 21.5895 49.0652 25.1984 41.9189 29.3057C37.1926 32.0207 32.5194 35.0228 28.9749 39.1623C27.8762 40.4459 26.898 41.8591 26.0899 43.3575C24.6936 45.9455 23.8102 48.7897 23.7141 51.6796C23.6967 52.2515 22.936 52.4325 22.6702 51.9218L21.4641 49.5835C20.9469 51.2755 20.4871 53.9722 21.6615 55.2941C22.8403 56.6163 24.3783 57.5585 25.7545 58.6706C32.2941 63.958 34.7234 73.6567 31.7669 81.4725C31.7643 81.5234 31.7574 81.5738 31.7504 81.6247C31.6886 81.7487 31.6269 81.8731 31.5612 81.9927V81.9971C31.0671 82.9179 30.4955 83.7873 29.8418 84.5938C28.757 85.9334 27.4304 87.12 25.8228 87.7407C24.2852 88.3309 22.5815 88.3644 20.9573 88.0887C19.9517 87.9173 18.9322 87.6132 18.1053 87.0352C17.8143 86.5915 17.5238 86.1431 17.2328 85.699C17.221 85.6816 17.2132 85.6685 17.2015 85.6507C17.6799 85.0222 18.2271 84.4611 18.9026 84.0461C19.9591 83.4011 21.2105 83.178 22.4305 82.9744C22.9447 82.8865 23.4583 82.7991 23.9681 82.7113C22.0939 82.1889 20.0935 82.1345 18.1953 82.5573C17.8261 82.6356 17.4646 82.7356 17.1253 82.8918C16.5164 83.174 16.0088 83.6229 15.5104 84.0679C15.4882 84.0879 15.466 84.1079 15.4434 84.1279C15.0528 83.8869 14.6095 83.7573 14.1707 83.6325C14.1415 83.6225 14.108 83.6164 14.0785 83.6064C13.1829 83.3602 12.2495 83.1114 11.3347 83.1527C11.0329 83.1666 10.7332 83.2101 10.4357 83.2967C9.97027 83.4337 9.54141 83.6742 9.09427 83.863C7.79592 84.4189 6.33141 84.5885 4.93998 84.3332C4.11182 84.1836 3.278 83.8895 2.45114 84.0374C1.4403 84.2136 0.650845 85.0213 0.116715 85.8973C0.0749592 85.9674 0.0332085 86.033 0.0162451 86.1126C-0.0255109 86.2631 0.0214613 86.4228 0.0645223 86.5737C0.278087 87.2766 0.487307 87.9795 0.696957 88.6824C0.994903 88.668 1.2872 88.5945 1.56122 88.4732C1.86526 89.2317 2.03923 90.039 2.07751 90.8515C3.82822 90.8158 5.4032 91.8576 6.78159 92.9358C8.16389 94.0141 9.5575 95.2076 11.2704 95.5647C12.4252 95.8035 13.6535 95.6087 14.6965 95.065C15.7074 95.7039 16.8383 96.1493 17.9983 96.452C19.4806 96.8352 21.013 96.9962 22.5393 97.1101C24.4457 97.2567 26.42 97.3263 28.2816 96.9527C28.8779 96.8309 29.4595 96.6665 30.0275 96.4416C30.2889 96.8796 30.7117 97.2328 31.1797 97.4529C31.8796 97.7826 32.6651 97.8661 33.4393 97.9065C34.2136 97.9513 35.0891 98.0101 35.5798 98.6129C35.8908 98.9987 35.9608 99.5198 36.02 100.011C36.247 101.993 36.4232 103.98 36.5523 105.969C36.5676 106.245 36.5867 106.527 36.6789 106.79C36.8825 107.361 37.4014 107.745 37.8603 108.142C38.4535 108.645 38.9881 109.22 39.4474 109.847L39.5188 109.94C39.7006 110.196 39.8859 110.469 40.1721 110.598C40.3587 110.684 40.5701 110.7 40.7732 110.706C41.5913 110.728 42.4256 110.597 43.1424 110.202C44.1959 109.62 44.8975 108.456 44.9227 107.252C44.9475 106.048 44.2929 104.855 43.2685 104.228C43.5717 104.838 43.7405 105.514 43.7513 106.193C43.7535 106.316 43.7466 106.448 43.6731 106.55C43.5173 106.767 43.1528 106.68 42.9854 106.472C42.8179 106.263 42.7775 105.985 42.6761 105.734C42.4665 105.201 41.9702 104.789 41.4026 104.683C40.8393 104.577 40.226 104.778 39.835 105.199C40.5718 102.716 40.8728 100.13 41.1733 97.5568C41.2116 97.2276 41.2503 96.8988 41.2764 96.5647C43.0171 96.3163 44.6782 95.5586 46.0953 94.5126C46.4664 94.239 46.8165 93.9519 47.1553 93.6426C48.3493 92.5635 49.3627 91.2839 50.2361 89.9246C50.8925 88.902 51.5014 87.8094 52.2639 86.8686C53.0651 87.3775 53.7541 88.0756 54.3874 88.7881C54.728 89.1708 55.0638 89.5662 55.4091 89.9494C55.9102 90.5105 56.4382 91.0477 57.0428 91.4992C57.8149 92.0746 58.7522 92.4926 59.7004 92.5426C60.001 92.5583 60.3033 92.5361 60.5999 92.4709C61.1923 92.3408 61.7343 92.0463 62.2671 91.7562C63.0709 91.3187 63.8708 90.8811 64.6702 90.4474C64.9238 90.3078 65.177 90.1725 65.4306 90.0333C66.2609 89.5801 67.1043 89.1191 68.0238 88.8998C68.9476 88.6811 69.9685 88.7259 70.7697 89.2304C71.4682 89.6702 71.9223 90.4026 72.4939 90.9972C73.061 91.5957 73.8923 92.0977 74.6817 91.8545C75.2641 91.6771 75.6477 91.1582 75.9683 90.6275C76.3045 90.5305 76.6047 90.3087 76.7943 90.0129C76.9518 89.758 77.0314 89.4566 77.0174 89.1587C77.4746 88.9407 77.8143 88.4536 77.8839 87.9351C77.98 87.2357 77.6559 86.5354 77.1866 86.01C76.7134 85.4846 76.1049 85.1087 75.5047 84.7377C75.9418 85.3845 76.0805 86.224 75.8796 86.9773C74.2041 86.6307 72.7875 85.5633 71.3782 84.5938C69.9646 83.6282 68.3952 82.71 66.6833 82.7391C67.1939 83.2837 67.4105 84.0888 67.2409 84.8143C65.9482 84.4537 64.5567 84.4446 63.2606 84.7925C63.0279 84.8569 62.7904 84.9335 62.6081 85.0896C62.2971 85.3575 62.1879 85.8147 61.8452 86.0387C62.3254 84.4894 62.3458 82.8009 61.9013 81.2411C61.8113 80.931 61.7086 80.6239 61.5403 80.352C61.1345 79.6731 60.4181 79.249 59.7209 78.8688C60.8718 77.1551 62.632 75.8846 64.4771 74.9285C68.8011 72.6807 73.7148 71.8982 78.3327 70.3532C82.9551 68.8082 87.6139 66.1663 89.5999 61.7158C90.3789 59.9738 90.6917 58.0552 90.6773 56.1401C90.6743 55.8186 90.6651 55.4998 90.6434 55.1849ZM78.2614 56.2636C63.2867 49.5452 47.0409 46.0203 30.6421 45.9081C47.0314 44.8229 63.8095 48.4774 78.2614 56.2636ZM41.6257 38.3128C50.5759 35.3438 59.944 33.5426 69.3635 33.0429C74.0462 32.7745 78.8852 32.7736 83.4087 34.169C78.8082 33.1085 74.0776 33.3108 69.4096 33.6988C57.714 34.6353 46.1715 37.1754 35.1435 41.1649C32.9217 41.9269 30.7522 42.8321 28.5635 43.702C32.7817 41.6103 37.1421 39.793 41.6257 38.3128ZM27.9232 48.55C33.8147 49.7583 39.2143 52.5838 44.5125 55.3145C49.7947 58.1082 54.9872 61.2452 59.3872 65.3212C54.5775 61.7715 49.4049 58.8307 44.1211 56.0665C38.8363 53.315 33.6155 50.4016 27.9232 48.55Z" fill="#1F2544"/>
<path d="M20.702 49.1434C19.091 55.1837 21.0509 55.7704 25.4196 59.0678C30.2189 62.8972 32.7817 69.0758 32.76 75.157C32.7278 77.2309 32.4042 79.2765 31.7778 81.2681C32.5316 72.7977 27.3434 63.9946 19.4128 60.7903C17.7669 60.127 16.0249 59.6746 14.5113 58.7507C12.9976 57.8308 12.6514 55.1175 12.6553 53.3481L14.4921 55.2311C14.8949 55.6425 15.5695 55.2493 15.4204 54.6939C14.2333 50.2895 14.9602 45.4127 16.8026 41.1884C18.9831 36.1925 22.5789 31.9621 26.3056 27.9852C36.3132 17.3083 47.6512 7.88537 59.9745 0C57.7697 1.90077 55.8654 4.14385 54.3513 6.6279C52.5911 9.52386 51.3223 13.3241 54.9277 16.0426C55.8667 16.7498 56.9676 17.2065 58.1181 17.4492C60.0954 17.8668 62.0884 18.0647 64.0853 18.1099L64.1514 18.3087C59.5117 19.9416 54.9516 21.8293 50.5033 23.9432C43.8384 27.2062 37.0909 30.5071 31.3951 35.3613C26.992 39.2011 23.4784 44.5346 22.9591 50.4752C22.4232 49.4457 21.7251 48.1017 21.2618 47.2243L20.702 49.1434Z" fill="#1F2544"/>
<path d="M92.6533 50.5279C92.2644 51.2247 91.9456 51.9637 91.702 52.7236C89.7621 49.3239 86.6204 47.1561 82.8815 46.2558C85.9393 48.7376 88.6743 52.1068 88.3102 56.2176C87.8505 55.6757 87.302 55.2098 86.6974 54.8427C86.2089 53.4717 85.6083 52.1373 84.6988 50.9476C84.3212 50.4609 83.8993 50.006 83.4465 49.5749C80.9564 47.2035 77.6189 45.6068 74.1162 44.5698C77.7024 44.0914 81.4144 44.4555 84.7618 45.6155C87.8005 46.6659 90.5337 48.3666 92.6533 50.5279Z" fill="#1F2544"/>
</svg>
